<svg width="24" height="24" viewBox="0 0 24 24" fill="none" xmlns="http://www.w3.org/2000/svg">
<g clip-path="url(#clip0_602:1067)">
<path d="M11.9992 13.875C11.3758 13.875 10.8742 14.3766 10.8742 15C10.8742 15.6234 11.3758 16.125 11.9992 16.125C12.6226 16.125 13.1242 15.6234 13.1242 15C13.1242 14.3766 12.6226 13.875 11.9992 13.875ZM11.6008 12.75H12.3976C12.5945 12.75 12.7586 12.5953 12.7726 12.3984L13.1008 7.14844C13.1148 6.93281 12.9414 6.75 12.7258 6.75H11.2726C11.057 6.75 10.8836 6.93281 10.8976 7.14844L11.2258 12.3984C11.2398 12.5953 11.4039 12.75 11.6008 12.75ZM11.9992 1.5C5.37108 1.5 -0.000795241 5.86406 -0.000795241 11.25C-0.000795241 13.4812 0.932017 15.525 2.47889 17.1703C1.78045 19.0172 0.32733 20.5828 0.303892 20.6016C-0.00548274 20.9297 -0.0898577 21.4078 0.0882673 21.8203C0.266392 22.2328 0.674205 22.5 1.1242 22.5C4.00702 22.5 6.28046 21.2953 7.64452 20.3297C8.99921 20.7563 10.4617 21 11.9992 21C18.6273 21 23.9992 16.6359 23.9992 11.25C23.9992 5.86406 18.6273 1.5 11.9992 1.5ZM11.9992 19.5C10.6726 19.5 9.36014 19.2984 8.09921 18.9L7.38671 18.675L6.77733 19.1063C5.69921 19.8703 4.03514 20.7609 1.96795 20.9625C2.53045 20.2547 3.36483 19.0688 3.88046 17.7L4.21327 16.8234L3.57108 16.1391C2.21639 14.7047 1.4992 13.0125 1.4992 11.25C1.4992 6.70312 6.21014 3 11.9992 3C17.7883 3 22.4992 6.70312 22.4992 11.25C22.4992 15.7969 17.7883 19.5 11.9992 19.5Z" fill="#0B1159"/>
</g>
<defs>
<clipPath id="clip0_602:1067">
<rect width="24" height="24" fill="white"/>
</clipPath>
</defs>
</svg>
