<svg width="24" height="25" viewBox="0 0 24 25" fill="none" xmlns="http://www.w3.org/2000/svg">
<g clip-path="url(#clip0_527:6689)">
<path d="M14.8843 13.937V6.93059C14.8843 5.3413 13.5912 4.0482 12.0019 4.0482C10.4126 4.0482 9.11949 5.3413 9.11949 6.93059V13.937H5.57129V6.93059C5.57129 3.37897 8.45021 0.5 12.0018 0.5C15.5535 0.5 18.4324 3.37897 18.4324 6.93059V13.937" fill="#E5ECF2"/>
<path d="M12.6662 0.534125C12.4475 0.511625 12.2255 0.5 12.0009 0.5C8.44929 0.5 5.57031 3.37897 5.57031 6.93059V13.937H6.90082V6.93059C6.90086 3.60364 9.4272 0.866984 12.6662 0.534125Z" fill="#CAD7E4"/>
<path d="M19.1816 12.5693H4.82152C4.03233 12.5693 3.39258 13.2091 3.39258 13.9983V23.0712C3.39258 23.8604 4.03233 24.5001 4.82152 24.5001H19.1816C19.9708 24.5001 20.6106 23.8604 20.6106 23.0712V13.9983C20.6106 13.2091 19.9708 12.5693 19.1816 12.5693Z" fill="#FCDF5D"/>
<path d="M4.8473 23.0712V13.9983C4.8473 13.2091 5.48705 12.5693 6.27623 12.5693H4.82152C4.03233 12.5693 3.39258 13.2091 3.39258 13.9983V23.0712C3.39258 23.8604 4.03233 24.5001 4.82152 24.5001H6.27623C5.487 24.5001 4.8473 23.8604 4.8473 23.0712Z" fill="#E0B022"/>
<path d="M14.44 17.639C14.44 16.2918 13.3479 15.1997 12.0008 15.1997C10.6537 15.1997 9.56152 16.2918 9.56152 17.639C9.56152 18.6145 10.1344 19.456 10.962 19.8461L9.79346 21.87H14.2081L13.0396 19.8461C13.8671 19.456 14.44 18.6145 14.44 17.639Z" fill="#3A536E"/>
</g>
<defs>
<clipPath id="clip0_527:6689">
<rect width="24" height="24" fill="white" transform="translate(0 0.5)"/>
</clipPath>
</defs>
</svg>
