<svg viewBox="0 0 16 13" xmlns="http://www.w3.org/2000/svg">
<path d="M13 12.5H10.375C10.1687 12.5 10 12.3313 10 12.125V11.375C10 11.1687 10.1687 11 10.375 11H13C13.8281 11 14.5 10.3281 14.5 9.5V3.5C14.5 2.67188 13.8281 2 13 2H10.375C10.1687 2 10 1.83125 10 1.625V0.875C10 0.66875 10.1687 0.5 10.375 0.5H13C14.6562 0.5 16 1.84375 16 3.5V9.5C16 11.1562 14.6562 12.5 13 12.5ZM5.22187 1.10938L4.60937 1.72187C4.45937 1.87187 4.4625 2.1125 4.61562 2.25625L8.15 5.6875H0.375C0.16875 5.6875 0 5.85625 0 6.0625V6.9375C0 7.14375 0.16875 7.3125 0.375 7.3125H8.15L4.61562 10.7406C4.46562 10.8875 4.4625 11.1281 4.60937 11.275L5.22187 11.8875C5.36875 12.0344 5.60625 12.0344 5.75312 11.8875L10.8906 6.7625C11.0375 6.61562 11.0375 6.37812 10.8906 6.23125L5.75312 1.10625C5.60625 0.9625 5.36875 0.9625 5.22187 1.10938Z"/>
</svg>
