<svg width="72" height="72" viewBox="0 0 72 72" fill="none" xmlns="http://www.w3.org/2000/svg">
<g clip-path="url(#clip0_432:7427)">
<path d="M69.2895 26.7526L46.6532 24.6532L37.6615 3.77333C37.032 2.3114 34.959 2.3114 34.3296 3.77333L25.3379 24.6531L2.70161 26.7524C1.11662 26.8994 0.476077 28.8708 1.67195 29.9213L18.7511 44.9251L13.7526 67.1025C13.4026 68.6553 15.0796 69.8738 16.4483 69.061L35.9953 57.4543L55.5424 69.061C56.911 69.8738 58.5882 68.6553 58.2382 67.1025L53.2398 44.9253L70.319 29.9214C71.515 28.871 70.8746 26.8995 69.2895 26.7526Z" fill="#FFDC64"/>
<path d="M37.6615 3.77333C37.032 2.3114 34.959 2.3114 34.3296 3.77333L25.3379 24.6531L2.70161 26.7524C1.11662 26.8994 0.476077 28.8708 1.67195 29.9213L18.7511 44.9251L13.7526 67.1025C13.4026 68.6553 15.0796 69.8738 16.4483 69.061L20.811 66.4704C21.4149 41.6144 32.9638 24.1107 42.1074 14.0973L37.6615 3.77333Z" fill="#FFC850"/>
<path d="M71.8581 27.6723C71.4981 26.5649 70.5544 25.81 69.3946 25.7024L47.3819 23.6608L43.0185 13.5282C42.788 12.9933 42.1678 12.7461 41.6327 12.9767C41.0978 13.207 40.8509 13.8275 41.0812 14.3623L45.6924 25.07C45.8452 25.4245 46.1794 25.6674 46.5638 25.703L69.2 27.8024C69.6492 27.844 69.8057 28.1809 69.8522 28.3238C69.8987 28.4667 69.9701 28.8312 69.6312 29.1289L52.5519 44.133C52.2617 44.3878 52.1342 44.7806 52.2191 45.1572L57.2177 67.3342C57.3168 67.7743 57.0448 68.0273 56.923 68.1156C56.8015 68.2039 56.4773 68.3849 56.089 68.1541L36.5417 56.5474C36.21 56.3505 35.7965 56.3505 35.4649 56.5474L15.9176 68.1541C15.5295 68.385 15.2052 68.2039 15.0836 68.1156C14.962 68.0273 14.6898 67.7743 14.789 67.3343L17.3692 55.8866C17.4973 55.3183 17.1404 54.7538 16.5722 54.6259C16.0031 54.4979 15.4397 54.8547 15.3115 55.4228L12.7314 66.8707C12.4754 68.0066 12.9017 69.1375 13.8437 69.8221C14.7857 70.5064 15.9932 70.5625 16.9941 69.9679L36.003 58.6808L55.0118 69.9679C55.4731 70.2417 55.9779 70.3776 56.4804 70.3776C57.0689 70.3776 57.6542 70.1912 58.1622 69.8221C59.1044 69.1375 59.5305 68.0068 59.2746 66.8705L54.4139 45.3043L71.0231 30.7139C71.8981 29.9452 72.2178 28.7798 71.8581 27.6723Z" fill="black"/>
<path d="M16.3245 50.9142C16.1964 51.4825 16.5533 52.0469 17.1214 52.1749C17.1996 52.1925 17.2775 52.2011 17.3543 52.2011C17.8366 52.2011 18.2717 51.8682 18.3821 51.378L19.7841 45.1572C19.8691 44.7804 19.7414 44.3875 19.4514 44.133L2.37236 29.1291C2.03345 28.8314 2.10489 28.4669 2.15143 28.3241C2.19784 28.1812 2.35422 27.8442 2.80351 27.8026L25.4396 25.7032C25.824 25.6677 26.1582 25.4248 26.311 25.0703L35.3025 4.1907C35.481 3.77642 35.8497 3.73156 35.9999 3.73156C36.1502 3.73156 36.5189 3.77628 36.6974 4.19056L39.1396 9.86154C39.3702 10.3965 39.9904 10.6436 40.5253 10.4131C41.0603 10.1827 41.3072 9.56229 41.0769 9.0275L38.6346 3.35637C38.1739 2.28692 37.1645 1.62247 35.9999 1.62247C34.8355 1.62247 33.826 2.28692 33.3653 3.35651L24.6212 23.6611L2.60875 25.7024C1.44929 25.81 0.505277 26.5647 0.145277 27.6723C-0.214582 28.7797 0.10534 29.9452 0.980309 30.7138L17.589 45.3044L16.3245 50.9142Z" fill="black"/>
</g>
<defs>
<clipPath id="clip0_432:7427">
<rect width="72" height="72" fill="white"/>
</clipPath>
</defs>
</svg>
