<svg width="25" height="25" viewBox="0 0 25 25" fill="none" xmlns="http://www.w3.org/2000/svg">
<g clip-path="url(#clip0_1489_11636)">
<path d="M3.40212 17.2749C2.9307 17.2749 2.63712 17.5915 2.32667 17.899C2.09872 18.1247 1.72667 18.6111 1.72667 18.6111C1.69878 18.7339 1.68411 18.8617 1.68411 18.9929V18.9931C1.68411 19.9419 2.45328 20.7111 3.40212 20.7111H4.70319C4.14959 20.7111 3.75941 21.0131 3.44506 21.4196C3.29501 21.6136 3.02707 22.0475 3.02707 22.0475C2.99914 22.1704 2.98451 22.2984 2.98451 22.4298C2.98451 23.3785 3.75326 24.1478 4.70197 24.1484L11.6091 24.1484C12.9324 24.1484 14.2321 23.7979 15.3758 23.1324C16.7747 22.3185 18.3651 21.8918 19.9835 21.8961L23.9137 21.9021C24.0432 21.9023 24.1484 21.7973 24.1484 21.6678V12.8886L23.9559 12.065C23.9559 11.9356 23.8509 11.8306 23.7215 11.8306L22.2303 11.91C20.12 11.91 18.1496 10.6961 17.2493 8.7875C16.9549 8.16331 16.5324 7.49277 15.9344 6.74445L14.5581 4.96016C14.1562 4.44003 13.9145 3.81547 13.8612 3.16156L13.9538 1.59978C13.9311 1.32664 13.7498 1.10394 13.5069 1.01553C13.4216 0.984499 13.329 0.975407 13.2327 0.975407C13.0183 0.975407 12.9658 0.882172 12.7741 0.938843C12.0539 1.1518 11.5099 1.73183 11.263 2.4297C11.1458 2.76092 11.11 3.17464 11.0969 3.42031C11.0179 4.91277 11.1433 5.9427 11.7804 7.61399C11.7836 7.62233 11.7867 7.63067 11.7898 7.63906C11.9165 7.98116 11.9454 8.32869 11.8943 8.65653C11.8517 8.93019 11.8175 9.30261 11.674 9.53431C11.3157 10.1127 10.6042 10.5666 9.8442 10.5666L3.57069 10.5732C2.75309 10.5732 2.22748 11.0129 1.7734 11.7388C1.74551 11.8616 1.73079 11.9893 1.73079 12.1206V12.1207C1.73079 13.0696 2.49997 13.8387 3.44881 13.8387L2.74348 14.0144C1.92594 14.0144 1.28825 14.4121 0.894075 15.1747C0.866184 15.2976 0.851419 15.4255 0.851419 15.5568C0.851419 16.5057 1.62064 17.2749 2.56948 17.2749H3.40212Z" fill="#FEDECF"/>
<path d="M12.7742 0.938922C12.9655 0.882203 13.1698 0.851642 13.3841 0.851642C13.4806 0.851642 13.5734 0.860546 13.6583 0.891953C13.9016 0.980078 14.0825 1.20273 14.1055 1.47602L14.2213 2.90149C14.2747 3.55539 14.5166 4.17977 14.9183 4.70008L16.2945 6.48414C16.8927 7.23273 17.315 7.90305 17.6094 8.52742C18.5098 10.4362 20.412 11.6699 22.5219 11.6699H23.9141C24.0434 11.6699 24.1484 11.7749 24.1484 11.9043V12.8887H21.0373C19.1136 12.8887 17.3923 11.7304 16.6302 9.96461C16.3339 9.27883 15.8848 8.53961 15.2164 7.70289L13.8402 5.91883C13.4384 5.39852 13.1966 4.77414 13.1431 4.12024L12.7742 0.938922Z" fill="#FDD0BF"/>
<path d="M0.894141 15.1743C1.06758 14.4093 1.75195 13.8384 2.56945 13.8384H5.66602C6.03492 13.8384 6.33398 14.1374 6.33398 14.5063C6.33398 14.8753 6.03492 15.1743 5.66602 15.1743H0.894141Z" fill="#FDD0BF"/>
<path d="M5.66602 18.6113H1.72664C1.90008 17.8463 2.58445 17.2754 3.40195 17.2754H5.66602C6.03492 17.2754 6.33398 17.5745 6.33398 17.9434C6.33398 18.3123 6.03492 18.6113 5.66602 18.6113Z" fill="#FDD0BF"/>
<path d="M10.5059 11.7388L1.77394 11.7388C1.94737 10.9733 2.6318 10.4024 3.4493 10.4024L9.85195 10.4024C10.9704 10.4024 11.8291 9.53143 11.9121 8.51002V10.3325C11.9121 11.1092 11.2825 11.7388 10.5059 11.7388Z" fill="#FDD0BF"/>
<path d="M4.70309 20.711H6.13184C6.50074 20.711 6.7998 21.01 6.7998 21.3789V21.3794C6.7998 21.7483 6.50074 22.0474 6.13184 22.0474H3.02693C3.20084 21.2824 3.88512 20.711 4.70309 20.711Z" fill="#FDD0BF"/>
<path d="M0.5 15.5568C0.5 16.4789 1.10633 17.2619 1.94112 17.5286C1.56542 17.9035 1.33259 18.4216 1.33259 18.9931C1.33259 20.0533 2.13411 20.9294 3.16292 21.0484C2.83372 21.4151 2.63305 21.8994 2.63305 22.4298C2.63305 23.5705 3.56108 24.4992 4.70206 24.5H9.07812C9.27233 24.5 9.42969 24.3426 9.42969 24.1484C9.42969 23.9543 9.27233 23.7969 9.07812 23.7969H4.7022C3.94897 23.7964 3.33608 23.1831 3.33608 22.4298C3.33608 21.6759 3.94934 21.0627 4.70319 21.0627H6.44891C6.64311 21.0627 6.80047 20.9052 6.80047 20.7111C6.80047 20.5169 6.64311 20.3595 6.44891 20.3595H3.40208C2.64866 20.3595 2.03567 19.7465 2.03567 18.9929C2.03567 18.2395 2.64866 17.6265 3.40208 17.6265H5.98016C6.17436 17.6265 6.33172 17.4691 6.33172 17.2749C6.33172 17.0808 6.17436 16.9234 5.98016 16.9234H2.56958C1.81611 16.9234 1.20308 16.3103 1.20308 15.5568C1.20308 14.8033 1.81611 14.1903 2.56958 14.1903C3.15392 14.1903 5.35691 14.1903 5.98016 14.1903C6.17436 14.1903 6.33172 14.0329 6.33172 13.8387C6.33172 13.6445 6.17436 13.4871 5.98016 13.4871H3.44891C2.69544 13.4871 2.08245 12.8742 2.08245 12.1205C2.08245 11.3671 2.69544 10.7541 3.44891 10.7541H6.18477C6.37897 10.7541 6.53633 10.5967 6.53633 10.4025C6.53633 10.2084 6.37897 10.051 6.18477 10.051H3.44891C2.30773 10.051 1.37933 10.9794 1.37933 12.1207C1.37933 12.6866 1.60784 13.2 1.97722 13.574C1.12386 13.8295 0.5 14.6215 0.5 15.5568Z" fill="black"/>
<path d="M24.149 21.5509C24.1246 21.5509 19.9804 21.5445 19.9594 21.5445C18.2889 21.5445 16.6432 21.9883 15.1991 22.8285C14.1102 23.462 12.8689 23.7969 11.6092 23.7969H10.7217C10.5275 23.7969 10.3701 23.9543 10.3701 24.1484C10.3701 24.3426 10.5275 24.5 10.7217 24.5H11.6092C12.9929 24.5 14.3565 24.1322 15.5527 23.4363C16.8963 22.6545 18.4272 22.2433 19.983 22.2477L24.1479 22.254C24.1481 22.254 24.1482 22.254 24.1484 22.254C24.3423 22.254 24.4997 22.097 24.5 21.903C24.5003 21.7089 24.3432 21.5512 24.149 21.5509Z" fill="black"/>
<path d="M7.47406 10.4024C7.47406 10.2084 7.63109 10.0509 7.82562 10.0509H9.85156C10.4211 10.0509 10.9344 9.78273 11.2602 9.31445C11.5864 8.84617 11.6562 8.26914 11.4523 7.73992C10.8378 6.12789 10.6597 5.03336 10.7459 3.40164C10.7694 2.96101 10.8317 2.59445 10.9316 2.31273C11.3211 1.21164 12.2839 0.500077 13.3841 0.500077C13.5383 0.500077 13.6634 0.519764 13.7787 0.561483C14.1566 0.698827 14.4223 1.04664 14.4556 1.44695L14.5719 2.87289C14.6206 3.49586 14.8653 4.0832 15.2595 4.56695L16.5711 6.26711C17.1641 7.00961 17.608 7.70008 17.9277 8.37742C18.3425 9.25726 18.9908 9.99742 19.8022 10.5187C20.6169 11.0418 21.5572 11.3184 22.5219 11.3184H24.1484C24.3425 11.3184 24.5 11.4759 24.5 11.6699C24.5 11.8645 24.3425 12.0215 24.1484 12.0215H22.5219C21.4222 12.0215 20.3502 11.7065 19.422 11.1102C18.4995 10.5177 17.7627 9.67633 17.2916 8.67742C16.9953 8.0493 16.5795 7.40383 16.0198 6.70398C16.0189 6.70211 14.7027 4.99633 14.7027 4.99633C14.225 4.40523 13.9311 3.68851 13.8711 2.93008L13.7548 1.50461C13.7445 1.37711 13.6592 1.26601 13.5383 1.22195C13.5031 1.2093 13.453 1.2032 13.3841 1.2032C12.5858 1.2032 11.8831 1.73055 11.5944 2.54711C11.5184 2.76273 11.4678 3.07117 11.4481 3.43914C11.3769 4.78773 11.4594 5.7843 12.1091 7.48867C12.3973 8.2382 12.2984 9.05476 11.8372 9.71617C11.3848 10.3663 10.6423 10.754 9.85156 10.754H7.82562C7.63109 10.754 7.47406 10.597 7.47406 10.4024Z" fill="black"/>
</g>
<defs>
<clipPath id="clip0_1489_11636">
<rect width="24" height="24" fill="white" transform="translate(0.5 0.5)"/>
</clipPath>
</defs>
</svg>
