<svg width="96" height="96" viewBox="0 0 96 96" fill="none" xmlns="http://www.w3.org/2000/svg">
<g clip-path="url(#clip0_432:7458)">
<path fill-rule="evenodd" clip-rule="evenodd" d="M47.9663 15.1298C50.6292 12.3606 53.5045 6.54081 48.5402 1.40649H2.34473C1.82704 1.40649 1.40723 1.82631 1.40723 2.34399V55.0718H5.83466H15.4122V44.5111L11.4683 40.5619C9.94297 39.0419 9.94297 36.5491 11.4683 35.029C12.9883 33.5037 15.4812 33.5037 17.0065 35.029L19.579 37.5961L22.1515 35.029C23.6715 33.5037 26.1643 33.5037 27.6844 35.029C29.2097 36.5491 29.2097 39.0419 27.6844 40.5619L23.7407 44.5109V55.0716H28.0618C37.0602 55.0716 43.6187 47.9442 43.9429 39.0257C43.9855 37.9043 43.8473 37.7714 44.469 37.7129C58.0382 36.5222 58.0382 19.8387 47.977 16.9632C47.2913 16.6922 47.0946 15.7675 47.9663 15.1298Z" fill="#B3E59F"/>
<path fill-rule="evenodd" clip-rule="evenodd" d="M32.8348 94.5939H16.959V75.8799C18.0538 75.4546 19.2497 75.2208 20.4988 75.2208C21.7744 75.2208 22.9916 75.4653 24.1076 75.9117C25.4683 74.4873 27.387 73.5997 29.5129 73.5997C33.584 73.5997 36.8953 76.8577 36.9804 80.9077C38.9842 82.247 40.3076 84.5324 40.3076 87.1209C40.3076 91.2507 36.9592 94.5939 32.8348 94.5939Z" fill="#B3E59F"/>
<path fill-rule="evenodd" clip-rule="evenodd" d="M15.4121 94.5939H19.5791H23.7406C23.7406 84.0065 23.7406 55.0931 23.7406 44.5109L27.6843 40.562C29.2096 39.0419 29.2096 36.5491 27.6843 35.0291C26.1643 33.5037 23.6715 33.5037 22.1514 35.0291L19.5789 37.5961L17.0064 35.0291C15.4811 33.5037 12.9883 33.5037 11.4682 35.0291C9.94289 36.5491 9.94289 39.0419 11.4682 40.562L15.4119 44.5109C15.4121 55.0931 15.4121 84.0065 15.4121 94.5939Z" fill="#BE8282"/>
<path fill-rule="evenodd" clip-rule="evenodd" d="M89.2736 80.9874L82.0613 78.5797C81.1577 78.2821 81.0939 77.9737 80.9132 77.0384L80.4349 74.5618L79.1061 67.6843C74.3439 70.2035 68.8854 72.8026 70.4214 76.8686L72.9833 82.1729C73.3341 82.901 73.7434 83.4326 74.8434 83.81L86.6267 87.8652L89.4383 84.7614L89.2736 80.9874Z" fill="#C8C5C9"/>
<path fill-rule="evenodd" clip-rule="evenodd" d="M93.9931 85.4094C94.4607 84.1551 95.0189 83.0974 93.7008 82.6138L89.2733 80.9874L86.6264 87.8649C86.0577 89.3319 86.435 92.1966 87.2588 93.5042H90.9899L93.9931 85.4094Z" fill="#9FD4FE"/>
<path fill-rule="evenodd" clip-rule="evenodd" d="M66.2416 59.3769V53.4508H58.2106C58.0139 53.4508 57.9927 53.4508 57.8812 53.2859L55.1441 49.305C52.7949 45.8928 47.7562 49.1561 50.1161 52.5046L54.0916 58.1332C54.9899 59.3716 55.0642 59.3769 56.5312 59.3769H66.2416Z" fill="#FFECE4"/>
<path fill-rule="evenodd" clip-rule="evenodd" d="M79.6349 52.4143L76.6638 48.1357C71.8484 44.6119 70.4187 46.6528 68.8242 47.8965L64.3809 53.4506V59.3767V67.7001L71.0457 71.3993L79.1032 67.6841L80.7402 59.4248L80.6073 58.5797L79.6349 52.4143Z" fill="#9FD4FE"/>
<path fill-rule="evenodd" clip-rule="evenodd" d="M80.8062 43.5809C77.2823 28.1781 71.234 38.2765 65.2865 35.4649C64.4255 36.8202 63.9258 38.4306 63.9258 40.158C63.9258 43.5064 66.089 46.419 68.8261 47.8965C69.0173 48.0029 69.2088 48.0985 69.4055 48.1836C70.4684 48.6726 71.6005 48.9437 72.7115 48.9437C74.2475 48.9437 75.5549 48.6514 76.6658 48.1358C78.6217 47.2217 79.9505 45.5899 80.8062 43.5809Z" fill="#FFECE4"/>
<path fill-rule="evenodd" clip-rule="evenodd" d="M80.8073 43.5806C82.9493 37.0911 81.4823 31.9356 76.2895 30.1018C73.2865 29.0389 70.0922 30.7821 64.7507 28.1194C63.2095 31.1809 63.6081 33.8543 65.2875 35.4647C66.9617 37.0699 72.771 35.4381 72.771 39.2012C72.771 45.3293 80.8073 43.5806 80.8073 43.5806Z" fill="#6F6571"/>
<path fill-rule="evenodd" clip-rule="evenodd" d="M89.2755 55.5821C88.1008 55.1783 86.2779 54.5456 84.4549 53.9346C82.6318 53.3181 80.8087 52.728 79.6395 52.4145C78.2417 52.0425 76.7587 52.8131 76.2857 54.2057C75.7914 55.6513 76.5673 57.2618 78.0184 57.7348L80.6121 58.5799L85.4167 60.1425C85.656 60.2276 85.5868 60.4136 85.5868 60.69V65.346C85.5868 66.8767 86.8093 68.1364 88.3399 68.1416C89.8599 68.1469 91.1569 66.9032 91.1569 65.3672V60.6315V58.1016C91.1143 56.964 90.3544 55.9489 89.2755 55.5821Z" fill="#FFECE4"/>
<path fill-rule="evenodd" clip-rule="evenodd" d="M79.1073 67.6842L64.3847 67.7001L59.7287 73.1108C58.9049 74.0622 58.1875 75.1518 58.1875 76.6718V78.8084V88.0936L61.7059 90.3153L65.2563 88.0936L65.2296 81.7263C65.2296 79.9032 64.9373 79.9405 66.4892 79.0688L70.4223 76.8685C72.6655 75.5823 78.3046 73.1213 79.1073 67.6842Z" fill="#ECEAEC"/>
<path fill-rule="evenodd" clip-rule="evenodd" d="M65.2564 88.0934H58.1874C56.6674 88.0934 52.9682 89.7358 52.4951 93.5042H65.2671L65.2564 88.0934Z" fill="#9FD4FE"/>
<path fill-rule="evenodd" clip-rule="evenodd" d="M62.1244 80.5996L62.1456 88.0938H65.2549L65.2283 81.7265C65.2283 79.9034 64.936 79.9408 66.4879 79.0691L70.4209 76.8688C72.6638 75.5825 78.3031 73.1218 79.1056 67.6844H75.7518C74.2476 72.8666 67.6784 74.3174 63.3839 76.7199C61.8321 77.5914 62.1244 78.7711 62.1244 80.5996Z" fill="#DAD8DB"/>
<path fill-rule="evenodd" clip-rule="evenodd" d="M88.3211 83.5494L89.4 83.9427L92.7484 85.1705C93.7104 85.5265 93.6731 86.1856 93.4022 87.0042L93.9921 85.4097C94.4597 84.1554 95.0179 83.0977 93.6997 82.6141L89.2723 80.9877L88.2891 83.5336L88.3211 83.5494Z" fill="#72BFFC"/>
<path fill-rule="evenodd" clip-rule="evenodd" d="M70.4209 76.8683L71.9462 80.0307C73.2855 79.276 75.3371 78.4628 77.2825 76.5813C77.6385 76.2357 77.6066 76.4378 77.697 76.9161L78.1275 79.1219C78.3083 80.0573 78.372 80.3603 79.2702 80.6631L88.1886 83.8043L89.2729 80.9873L82.0605 78.5796C81.157 78.2821 81.0932 77.9736 80.9125 77.0384L80.4342 74.5617L80.0727 72.6802L79.1053 67.684C78.3028 73.1213 72.6638 75.5823 70.4209 76.8683Z" fill="#B6B1B7"/>
<path fill-rule="evenodd" clip-rule="evenodd" d="M62.1529 90.0388L62.1581 93.5042H65.2675L65.2568 88.1998V88.0934H62.1475L62.1529 90.0388Z" fill="#72BFFC"/>
<path fill-rule="evenodd" clip-rule="evenodd" d="M72.7099 48.9437C74.2459 48.9437 75.5533 48.6514 76.6642 48.1357C78.62 47.2215 79.9489 45.5899 80.8046 43.5808C80.8046 43.5808 79.0772 43.9528 77.2277 43.7456C76.6057 45.0052 75.7714 46.0789 74.687 46.8868C74.2832 47.1844 73.8527 47.4502 73.3796 47.6681C72.4282 48.1146 71.328 48.3909 70.0684 48.4601C70.9346 48.7684 71.8275 48.9437 72.7099 48.9437Z" fill="#FFDDCE"/>
<path fill-rule="evenodd" clip-rule="evenodd" d="M77.2306 43.7455C79.0803 43.9529 80.8075 43.5807 80.8075 43.5807C82.9495 37.0911 81.4825 31.9356 76.2897 30.1019C75.3065 29.7511 74.3018 29.7032 73.207 29.7032C76.5449 30.9629 78.2881 33.6362 78.4636 37.1708C78.4848 37.6598 78.4795 38.1647 78.4424 38.6856C78.3468 40.0675 78.0385 41.5504 77.5229 43.1131C77.4327 43.3309 77.3369 43.5383 77.2306 43.7455Z" fill="#5D5360"/>
<path fill-rule="evenodd" clip-rule="evenodd" d="M86.6276 57.5964C87.7172 57.942 88.4666 58.9836 88.5092 60.1211L88.4029 68.1415C89.8963 68.1096 91.1561 66.8818 91.1561 65.367V60.6313V58.1014C91.1136 56.964 90.3536 55.9489 89.2746 55.5821C88.0999 55.1783 86.277 54.5456 84.4539 53.9346C82.6309 53.3181 80.8078 52.728 79.6386 52.4145C78.2408 52.0425 76.7578 52.8131 76.2848 54.2057C76.2688 54.2483 76.2529 54.2961 76.2422 54.3386L86.6276 57.5964Z" fill="#FFDDCE"/>
<path fill-rule="evenodd" clip-rule="evenodd" d="M54.0917 58.133C54.99 59.3714 55.0642 59.3767 56.5312 59.3767H64.3867V56.8945H57.5463C56.0793 56.8945 56.0051 56.8893 55.1015 55.6508L51.1312 50.0223C50.7911 49.544 50.6051 49.0657 50.5413 48.6031C49.4996 49.4748 49.0425 50.9789 50.1161 52.5042L54.0917 58.133Z" fill="#FFDDCE"/>
<path fill-rule="evenodd" clip-rule="evenodd" d="M19.2588 55.0716V75.295V94.5938H19.5777H23.7393V75.7735V55.0716V44.5108L27.683 40.5619C29.2083 39.0418 29.2083 36.549 27.683 35.029C26.6305 33.9713 25.1105 33.6471 23.7712 34.051C24.6959 35.5603 24.5047 37.5694 23.2077 38.8716L19.2588 42.8153V55.0716Z" fill="#AF7373"/>
<path fill-rule="evenodd" clip-rule="evenodd" d="M23.7432 76.7782C27.7347 76.8685 30.9503 80.0947 31.0352 84.0862C33.039 85.4255 34.3624 87.7109 34.3624 90.2993C34.3624 91.8991 33.8575 93.3768 33.0072 94.5886C37.0519 94.5035 40.3099 91.1924 40.3099 87.121C40.3099 84.5326 38.9865 82.2472 36.9827 80.9078C36.8976 76.8578 33.5865 73.5999 29.5152 73.5999C27.3891 73.5999 25.4704 74.4875 24.1099 75.9119C23.9877 75.8641 23.8654 75.8163 23.7432 75.7737V76.7782Z" fill="#95D6A4"/>
<path fill-rule="evenodd" clip-rule="evenodd" d="M28.0606 55.0718C37.0589 55.0718 43.6174 47.9444 43.9416 39.0259C43.9842 37.9045 43.846 37.7716 44.4678 37.7131C58.0369 36.5224 58.0369 19.8389 47.9757 16.9634C47.29 16.6922 47.0933 15.7675 47.965 15.1296C50.6279 12.3604 53.5032 6.54062 48.5389 1.40631H39.0093C42.6235 6.03025 40.0776 11.0477 37.7123 13.5032C36.8884 14.1091 37.0744 14.9807 37.723 15.2359C47.2263 17.9571 49.3043 33.3813 36.4846 34.5027C35.8999 34.5558 36.0329 34.6834 35.9903 35.7411C35.7458 42.4645 34.6774 49.6876 23.7393 50.4477V55.0716H28.0606V55.0718Z" fill="#95D6A4"/>
<path fill-rule="evenodd" clip-rule="evenodd" d="M75.7188 67.6843H75.7506H79.1044L80.7415 59.425L80.6086 58.5799L78.0149 57.7348C77.6215 57.6073 77.2761 57.3947 76.9943 57.1236L75.7188 67.6843Z" fill="#72BFFC"/>
<path fill-rule="evenodd" clip-rule="evenodd" d="M73.8008 48.8905L76.4689 53.7803C77.0747 52.6641 78.3876 52.0795 79.6365 52.4144L76.6654 48.1358C75.8258 48.5237 74.8797 48.7842 73.8008 48.8905Z" fill="#72BFFC"/>
<path d="M21.5264 13.0076C22.2185 13.1563 22.8631 13.223 23.4622 13.223C27.224 13.223 29.1845 10.5834 29.7329 8.97054C29.9831 8.23536 29.5895 7.43642 28.8543 7.18648C28.1188 6.93636 27.3202 7.32992 27.0701 8.06529C27.0279 8.18904 25.9929 11.0914 22.1169 10.2575C21.3575 10.0942 20.6099 10.5776 20.4466 11.3372C20.2837 12.0967 20.7671 12.8445 21.5264 13.0076Z" fill="black"/>
<path d="M28.3852 23.9011C27.6264 23.7389 26.8783 24.2215 26.7152 24.9809C26.5522 25.7403 27.0356 26.488 27.795 26.651C28.4876 26.7997 29.1324 26.8664 29.7321 26.8664C33.4967 26.8664 35.4583 24.2266 36.0067 22.6139C36.2569 21.8787 35.8633 21.0798 35.1279 20.8299C34.3931 20.5797 33.594 20.9733 33.3439 21.7087C33.3017 21.8328 32.2659 24.7342 28.3852 23.9011Z" fill="black"/>
<path d="M6.96955 24.3127C7.65955 24.4601 8.30248 24.5265 8.90005 24.5265C12.668 24.5265 14.631 21.8876 15.1796 20.276C15.4299 19.5409 15.0369 18.7419 14.3015 18.4916C13.5669 18.2407 12.7676 18.6343 12.5171 19.3697C12.4747 19.4932 11.4403 22.3929 7.5568 21.5621C6.79911 21.4005 6.05024 21.884 5.88767 22.6438C5.72567 23.4032 6.20999 24.1504 6.96955 24.3127Z" fill="black"/>
<path d="M40.7803 48.6617C41.0067 48.7975 41.2557 48.8618 41.5018 48.8618C41.9798 48.8618 42.4459 48.6178 42.7095 48.1781C44.3181 45.4931 45.2307 42.346 45.3482 39.0791C45.3488 39.0628 45.3494 39.0467 45.3499 39.0308C48.5014 38.614 51.1859 37.3564 53.1486 35.3698C55.0339 33.4615 56.2178 30.8891 56.4822 28.1261C57.0119 22.591 54.043 17.6805 49.189 15.8816C52.0495 12.756 55.1543 6.2237 49.5514 0.429015C49.0118 -0.129547 48.1214 -0.144735 47.563 0.395453C47.0044 0.935265 46.9894 1.82552 47.5294 2.3837C52.605 7.63314 47.8695 13.1725 47.0205 14.083C46.2677 14.6869 45.8869 15.5473 45.9977 16.41C46.1044 17.2433 46.6649 17.9563 47.4597 18.271C47.5026 18.2878 47.5463 18.3026 47.5905 18.3152C52.2754 19.6541 54.0325 24.2005 53.6824 27.8576C53.3264 31.5801 50.6864 35.7555 44.3376 36.3128C42.5676 36.4791 42.5537 37.887 42.5477 38.4883C42.5464 38.6224 42.5449 38.7818 42.5376 38.9749C42.4369 41.7711 41.6622 44.4536 40.297 46.7323C39.8976 47.3989 40.1142 48.2625 40.7803 48.6617Z" fill="black"/>
<path d="M94.5934 93.1877H92.6074C92.6074 93.1877 95.3929 85.683 95.4339 85.5765C95.7832 84.6686 96.1796 83.6394 95.7172 82.6204C95.4412 82.0119 94.9258 81.5655 94.1854 81.2938C94.1854 81.2938 82.4134 77.2142 82.3822 77.2024C82.3536 77.0827 80.5384 67.6873 80.5384 67.6873L81.9634 60.4982L84.1783 61.2189V65.3458C84.1783 67.6547 86.0421 69.5398 88.3327 69.5477H88.347C89.4521 69.5477 90.5383 69.0964 91.3294 68.3083C92.1234 67.5169 92.5611 66.4723 92.5611 65.3672V58.1017C92.5611 58.0841 92.5607 58.0667 92.5601 58.0492C92.4958 56.3319 91.3569 54.8055 89.7306 54.2526L88.986 53.9962C87.8239 53.5956 81.5537 51.4972 80.5031 51.1961L78.684 48.5764C80.1392 47.5333 81.2856 46.0455 82.1004 44.1322C82.1121 44.1052 82.1209 44.0777 82.1304 44.0505C82.1338 44.0407 82.1387 44.0319 82.1419 44.022C82.1441 44.0154 82.1458 44.0089 82.1481 44.0023C82.149 43.9989 82.1501 43.9957 82.1512 43.9924C83.3029 40.488 83.4712 37.2634 82.6372 34.6659C81.7337 31.8523 79.7002 29.8159 76.7582 28.7769C75.3594 28.2817 74.0092 28.2926 72.5812 28.3052C70.4991 28.3217 68.3447 28.3404 65.3775 26.8616C64.6847 26.5157 63.8424 26.7958 63.4941 27.4877C61.9614 30.5319 62.0119 33.4959 63.5773 35.6394C62.8867 37.0337 62.5254 38.5766 62.5254 40.1586C62.5254 43.2551 64.1616 46.2776 66.7567 48.2336L63.7074 52.0451H58.731L56.2991 48.5083C55.3138 47.0775 53.8239 46.3348 52.2064 46.4681C50.6012 46.6018 49.1351 47.6064 48.4712 49.0279C47.8305 50.3996 48.0097 51.9624 48.9641 53.3166L52.9498 58.9597C54.1001 60.5452 54.5681 60.7837 56.5279 60.7837H62.9771V67.1792L58.6633 72.192C57.7862 73.2052 56.7799 74.63 56.7799 76.6723V86.9107C55.6063 87.2473 54.2332 87.9731 53.1126 89.1394C52.0166 90.2797 51.3426 91.6601 51.1213 93.1882H39.3086C40.7981 91.5995 41.7129 89.466 41.7129 87.1217C41.7129 84.3932 40.4646 81.8409 38.3409 80.1617C37.8814 75.7069 34.0626 72.1942 29.5119 72.1942C27.9516 72.1942 26.4607 72.5921 25.146 73.3372V56.4787H28.0609C31.842 56.4787 35.3827 55.3125 38.3006 53.1064C38.9201 52.638 39.0426 51.756 38.5742 51.1365C38.106 50.5172 37.2238 50.3944 36.6043 50.8629C34.1788 52.6969 31.2246 53.6662 28.0609 53.6662H25.146V45.0936L28.6762 41.5586C29.6809 40.5576 30.2338 39.2212 30.2338 37.7961C30.2338 36.3709 29.6809 35.0346 28.6798 34.0371C27.6787 33.0326 26.3424 32.4793 24.9171 32.4793C23.4917 32.4793 22.1556 33.0324 21.1575 34.0342L19.5784 35.61L18.0004 34.0354C16.9969 33.0317 15.6598 32.4793 14.235 32.4793C14.2335 32.4793 14.2316 32.4793 14.2303 32.4793C12.8062 32.4804 11.4714 33.0337 10.4751 34.0335C9.47044 35.0346 8.91731 36.3709 8.91731 37.7959C8.91731 39.2212 9.47044 40.5574 10.4726 41.5562L14.0051 45.0934V53.666H1.40625C0.629437 53.666 0 54.2955 0 55.0723C0 55.8491 0.629625 56.4785 1.40625 56.4785H14.0049V71.198C14.0049 71.9749 14.6346 72.6043 15.4112 72.6043C16.188 72.6043 16.8174 71.9749 16.8174 71.198V44.511C16.8174 44.1384 16.6695 43.7809 16.4062 43.5172L12.4601 39.5659C11.9891 39.0966 11.7296 38.4679 11.7296 37.7955C11.7296 37.1233 11.9891 36.4946 12.4635 36.0217C12.9324 35.5513 13.5606 35.2918 14.2324 35.2912H14.2346C14.9081 35.2912 15.5391 35.5513 16.0123 36.0244L18.5848 38.5914C19.1338 39.1393 20.0226 39.1393 20.5716 38.5914L23.1469 36.0216C23.6162 35.5506 24.2449 35.2911 24.9171 35.2911C25.5892 35.2911 26.2181 35.5504 26.691 36.0249C27.162 36.4942 27.4213 37.1229 27.4213 37.7951C27.4213 38.4675 27.162 39.0962 26.6887 39.5679L22.7449 43.5169C22.4816 43.7805 22.3337 44.1379 22.3337 44.5106V93.1877H16.8174V77.6925C16.8174 76.9157 16.1878 76.2862 15.4112 76.2862C14.6344 76.2862 14.0049 76.9157 14.0049 77.6925V93.1877H3.58012C2.80331 93.1877 2.17387 93.8171 2.17387 94.5939C2.17387 95.3707 2.8035 96.0002 3.58012 96.0002H94.5936C95.3704 96.0002 95.9998 95.3707 95.9998 94.5939C95.9998 93.8171 95.3702 93.1877 94.5934 93.1877ZM32.8335 93.1877H25.1458V76.8607C26.2997 75.6649 27.8486 75.006 29.5117 75.006C32.7853 75.006 35.5046 77.6666 35.5732 80.9374C35.5828 81.3964 35.8159 81.8218 36.1976 82.077C37.89 83.2082 38.9001 85.0939 38.9001 87.1209C38.9002 90.4661 36.1787 93.1877 32.8335 93.1877ZM66.6489 80.6047C66.8263 80.4902 69.804 78.8248 69.804 78.8248L71.7157 82.7831C72.1477 83.6797 72.7702 84.5857 74.3854 85.1394L85.0003 88.7927C84.8848 90.0444 85.0042 91.7533 85.5465 93.1877H66.6735C66.6735 93.1877 66.6499 80.7037 66.6489 80.6047ZM87.4322 81.8554L85.8009 86.0938L75.2991 82.4794C74.6036 82.241 74.4609 82.0009 74.2491 81.5612L72.2677 77.459C74.1071 76.4565 76.7722 74.9173 78.5929 72.4459L79.5317 77.3053C79.7267 78.3146 79.9284 79.3582 81.6154 79.9138L87.4322 81.8554ZM77.9514 66.2743L65.7896 66.2919V53.9441L69.2334 49.6395C70.3742 50.1043 71.568 50.3499 72.7119 50.3499C73.938 50.3499 75.0851 50.1789 76.14 49.8435L77.1587 51.3105C76.1527 51.7774 75.3324 52.6329 74.9527 53.7508C74.5926 54.8044 74.673 55.9836 75.1734 56.9857C75.6739 57.9881 76.5287 58.7289 77.5802 59.0719C77.5804 59.0719 77.5807 59.072 77.5809 59.072L79.2699 59.6216L77.9514 66.2743ZM88.0693 56.6548L88.8206 56.9135C89.3402 57.0902 89.7189 57.5893 89.7484 58.1327V65.367C89.7484 65.7191 89.6047 66.0562 89.3441 66.3161C89.0766 66.5827 88.7136 66.7352 88.3472 66.7352C88.3455 66.7352 88.344 66.7352 88.3427 66.7352C87.5972 66.7326 86.991 66.1093 86.991 65.3458V60.69C86.991 60.662 86.9929 60.6358 86.9942 60.6114C87.0591 59.3707 86.2404 58.9436 85.8855 58.8174C85.8737 58.8133 85.8619 58.8092 85.8501 58.8054L78.4524 56.3979C78.1222 56.2903 77.8515 56.0529 77.6901 55.7297C77.5213 55.3914 77.4943 55.0119 77.6154 54.6583C77.847 53.9762 78.5758 53.5869 79.2735 53.7729C80.2571 54.0365 86.9122 56.256 88.0693 56.6548ZM65.4915 29.9925C68.4026 31.1526 70.7046 31.1342 72.6045 31.1171C73.8789 31.1066 74.8875 31.0976 75.8203 31.4282C81.372 33.3885 80.5995 39.2017 79.7181 42.3311C78.4029 42.4826 76.2741 42.4918 75.1035 41.5449C74.4797 41.0404 74.1765 40.2737 74.1765 39.2014C74.1765 35.6147 70.6862 35.2106 68.6008 34.9691C67.7867 34.8748 66.5572 34.7325 66.2612 34.4509C66.2606 34.4503 66.2599 34.4497 66.2593 34.4492C65.1637 33.3981 64.9033 31.815 65.4915 29.9925ZM65.3377 40.158C65.3377 39.1822 65.5309 38.2299 65.8944 37.3466C66.6373 37.5722 67.4647 37.6687 68.2772 37.7629C70.9382 38.0711 71.3638 38.3769 71.3638 39.2014C71.3638 41.6332 72.4399 43.0106 73.3427 43.7381C74.7587 44.8792 76.6316 45.1976 78.1886 45.2233C77.5849 45.9354 76.8787 46.4841 76.0736 46.8602C75.1057 47.3094 73.9746 47.5372 72.7116 47.5372C71.8311 47.5372 70.8911 47.319 69.9879 46.9033C67.6732 45.8509 65.3377 43.3567 65.3377 40.158ZM56.5277 57.9707C56.22 57.9707 55.8759 57.9707 55.7252 57.9512C55.602 57.8248 55.3536 57.4828 55.2367 57.3219L51.2621 51.6945C50.8899 51.1665 50.8082 50.6694 51.0193 50.2172C51.2565 49.7094 51.8404 49.3202 52.4392 49.2701C53.0422 49.2221 53.5729 49.5082 53.9816 50.1017L56.7137 54.0748C57.1807 54.7641 57.7309 54.8569 58.2073 54.8569H62.9769V57.9705H56.5277V57.9707ZM59.5922 76.6717C59.5922 75.6289 60.0712 74.862 60.7905 74.0312C60.7914 74.03 60.7924 74.0289 60.7933 74.0278L65.0291 69.1055L77.2742 69.0922C76.0014 72.237 72.6748 74.0398 70.5703 75.1804C70.2544 75.3515 65.7992 77.8427 65.7992 77.8427C64.0931 78.8008 63.7539 79.2697 63.8049 80.9687C63.8049 80.9687 63.822 81.4567 63.822 81.732L63.8426 86.6872H59.592V76.6717H59.5922ZM53.979 93.1877C54.1648 92.4017 54.5529 91.6987 55.1402 91.0875C56.2183 89.9657 57.6559 89.4999 58.1859 89.4999H63.852L63.861 93.1877H53.979ZM89.0181 93.1877C88.9221 93.1877 88.7434 93.1877 88.4923 92.8234C87.7012 91.6755 87.6538 89.1167 87.8859 88.5077L90.0883 82.7852L93.0581 83.876C92.9942 84.0857 89.6077 93.1877 89.6077 93.1877H89.0181Z" fill="black"/>
</g>
<defs>
<clipPath id="clip0_432:7458">
<rect width="96" height="96" fill="white"/>
</clipPath>
</defs>
</svg>
