<svg width="182" height="156" viewBox="0 0 182 156" fill="none" xmlns="http://www.w3.org/2000/svg">
<g opacity="0.4">
<path d="M181.387 135.71L158.714 156V135.71L170.05 125.565L181.387 135.71Z" fill="white"/>
<path d="M136.035 135.71L158.708 156V135.71L147.371 125.565L136.035 135.71Z" fill="white"/>
<path d="M181.387 72.9273L158.714 93.2172V72.9273L170.05 62.7823L181.387 72.9273Z" fill="white"/>
<path d="M136.035 72.9269L158.708 93.2169V72.9269L147.371 62.782L136.035 72.9269Z" fill="white"/>
<path d="M181.387 10.145L158.714 30.4349V10.145L170.05 0L181.387 10.145Z" fill="white"/>
<path d="M136.035 10.145L158.708 30.4349V10.145L147.371 0L136.035 10.145Z" fill="white"/>
<path d="M113.371 72.9276L90.6985 93.2175V72.9276L102.035 62.7826L113.371 72.9276Z" fill="white"/>
<path d="M68.0195 72.9269L90.6921 93.2169V72.9269L79.3558 62.782L68.0195 72.9269Z" fill="white"/>
<path d="M113.371 10.145L90.6985 30.4349V10.145L102.035 0L113.371 10.145Z" fill="white"/>
<path d="M68.0195 10.145L90.6921 30.4349V10.145L79.3558 0L68.0195 10.145Z" fill="white"/>
<path d="M45.3506 10.145L22.678 30.4349V10.145L34.0143 0L45.3506 10.145Z" fill="white"/>
<path d="M-0.000976562 10.145L22.6716 30.4349V10.145L11.3353 0L-0.000976562 10.145Z" fill="white"/>
</g>
</svg>
