<svg width="182" height="156" viewBox="0 0 182 156" fill="none" xmlns="http://www.w3.org/2000/svg">
<g opacity="0.4">
<path d="M181.388 135.71L158.715 156V135.71L170.051 125.565L181.388 135.71Z" fill="#CEE5D8"/>
<path d="M136.036 135.71L158.709 156V135.71L147.372 125.565L136.036 135.71Z" fill="#CEE5D8"/>
<path d="M181.388 72.9273L158.715 93.2172V72.9273L170.051 62.7823L181.388 72.9273Z" fill="#CEE5D8"/>
<path d="M136.036 72.9269L158.709 93.2169V72.9269L147.372 62.782L136.036 72.9269Z" fill="#CEE5D8"/>
<path d="M181.388 10.145L158.715 30.4349V10.145L170.051 0L181.388 10.145Z" fill="#CEE5D8"/>
<path d="M136.036 10.145L158.709 30.4349V10.145L147.372 0L136.036 10.145Z" fill="#CEE5D8"/>
<path d="M113.372 72.9276L90.6995 93.2175V72.9276L102.036 62.7826L113.372 72.9276Z" fill="#CEE5D8"/>
<path d="M68.0205 72.9269L90.6931 93.2169V72.9269L79.3568 62.782L68.0205 72.9269Z" fill="#CEE5D8"/>
<path d="M113.372 10.145L90.6995 30.4349V10.145L102.036 0L113.372 10.145Z" fill="#CEE5D8"/>
<path d="M68.0205 10.145L90.6931 30.4349V10.145L79.3568 0L68.0205 10.145Z" fill="#CEE5D8"/>
<path d="M45.3516 10.145L22.679 30.4349V10.145L34.0153 0L45.3516 10.145Z" fill="#CEE5D8"/>
<path d="M0 10.145L22.6726 30.4349V10.145L11.3363 0L0 10.145Z" fill="#CEE5D8"/>
</g>
</svg>
