<svg width="96" height="96" viewBox="0 0 96 96" fill="none" xmlns="http://www.w3.org/2000/svg">
<g clip-path="url(#clip0_432:7438)">
<path d="M92.7104 72.7284C91.5024 68.2199 91.2494 63.4915 92.1189 58.9057C92.4858 56.9699 92.6716 54.9312 92.6716 52.7928C92.6716 50.6544 92.4858 48.6159 92.1189 46.6799C91.2496 42.094 91.5024 37.3657 92.7104 32.8572L94.4909 26.2124C95.1042 23.9234 93.0097 21.8288 90.7207 22.4422L84.733 24.0466C79.2886 25.5053 73.5644 25.4442 68.12 23.9862C62.351 22.4414 55.6239 21.6432 47.9997 21.6432C40.3756 21.6432 33.6485 22.4414 27.8795 23.9862C22.4349 25.4442 16.7107 25.5053 11.2664 24.0466L5.2788 22.4422C2.9898 21.8288 0.895234 23.9234 1.50855 26.2124L3.28905 32.8572C4.49711 37.3657 4.75005 42.094 3.88061 46.6799C3.51367 48.6157 3.32786 50.6544 3.32786 52.7928C3.32786 54.9312 3.51367 56.9697 3.88061 58.9057C4.74986 63.4915 4.49711 68.2199 3.28905 72.7284L1.50855 79.3732C0.895234 81.6622 2.9898 83.7567 5.2788 83.1434L11.2664 81.539C16.7109 80.0802 22.435 80.1414 27.8795 81.5994C33.6485 83.1442 40.3756 83.9424 47.9997 83.9424C55.6239 83.9424 62.351 83.1442 68.12 81.5994C73.5646 80.1414 79.2888 80.0802 84.733 81.539L90.7207 83.1434C93.0097 83.7567 95.1042 81.6622 94.4909 79.3732L92.7104 72.7284Z" fill="#E5ECF1"/>
<path d="M92.7135 72.7285C91.5055 68.2199 91.2525 63.4917 92.122 58.9056C92.4889 56.9699 92.6747 54.9312 92.6747 52.7927C92.6747 50.6543 92.4889 48.6158 92.122 46.6799C91.2527 42.094 91.5055 37.3656 92.7135 32.857L94.494 26.2122C95.1074 23.9232 93.0128 21.8286 90.7238 22.4419L84.7362 24.0464C82.5773 24.6248 80.3742 24.9604 78.1622 25.0686L78.1082 25.27C76.9002 29.7784 76.6472 34.5068 77.5167 39.0929C77.8836 41.0286 78.0694 43.0673 78.0694 45.2057C78.0694 47.3442 77.8836 49.3827 77.5167 51.3186C76.6474 55.9045 76.9002 60.6329 78.1082 65.1413L79.8887 71.7861C80.502 74.0751 78.4075 76.1697 76.1185 75.5564L70.1309 73.9519C64.6864 72.4932 58.9622 72.5543 53.5178 74.0123C47.7488 75.5571 41.0217 76.3553 33.3975 76.3553C25.7734 76.3553 19.0463 75.5571 13.2773 74.0123C9.99173 73.1324 6.60435 72.7652 3.23798 72.9299L1.51148 79.3735C0.898163 81.6625 2.99273 83.7571 5.28173 83.1437L11.2694 81.5393C16.7138 80.0806 22.438 80.1417 27.8824 81.5997C33.6514 83.1445 40.3785 83.9427 48.0027 83.9427C55.6268 83.9427 62.3539 83.1445 68.1229 81.5997C73.5675 80.1417 79.2917 80.0806 84.736 81.5393L90.7236 83.1437C93.0126 83.7571 95.1072 81.6625 94.4939 79.3735L92.7135 72.7285Z" fill="#D6E4EA"/>
<path d="M53.7369 38.1469H42.3863C34.3029 38.1469 27.75 44.6998 27.75 52.7831V62.9351H68.3732V52.7831C68.3732 44.6998 61.8203 38.1469 53.7369 38.1469Z" fill="#A64C31"/>
<path d="M53.9801 38.147H48.0146C55.9637 38.147 62.4077 44.591 62.4077 52.54V62.935H68.3732V52.54C68.3732 44.5912 61.9292 38.147 53.9801 38.147Z" fill="#8A3E25"/>
<path d="M66.1288 61.6311C66.0146 61.6226 65.9039 61.6204 65.7948 61.621V55.6481C65.7948 52.4348 63.1899 49.8298 59.9765 49.8298H36.2746C33.0613 49.8298 30.4563 52.4348 30.4563 55.6481V61.6301C30.2707 61.6174 30.0781 61.6165 29.8766 61.6313C26.9951 61.8435 24.7666 63.4744 25.0184 66.8931C25.2648 70.2398 27.797 74.0561 30.6067 74.0166C31.7386 82.6832 39.1503 89.3753 48.1256 89.3753C57.1031 89.3753 64.5163 82.6798 65.6454 74.01C68.355 73.8321 70.7476 70.1413 70.9869 66.8931C71.2387 63.4744 69.0103 61.8433 66.1288 61.6311Z" fill="#FFCBBE"/>
<path d="M66.128 61.6311C66.0138 61.6226 65.9032 61.6204 65.794 61.621V55.6481C65.794 52.4348 63.1891 49.8298 59.9757 49.8298H57.9865C58.9943 50.8761 59.6153 52.2977 59.6153 53.865V69.9229C59.6153 79.6813 51.7045 87.5921 41.9461 87.5921C41.3609 87.5921 40.7825 87.5629 40.2119 87.5074C42.5926 88.702 45.2799 89.3753 48.1248 89.3753C57.1023 89.3753 64.5155 82.6798 65.6446 74.01C68.3543 73.8321 70.7468 70.1413 70.9861 66.8931C71.2379 63.4744 69.0095 61.8433 66.128 61.6311Z" fill="#FDAD9D"/>
<path d="M26.1634 79.7587C21.0782 78.7267 15.8018 78.8748 10.9043 80.1871L4.91666 81.7915C4.07141 82.0179 3.50122 81.5632 3.29516 81.3571C3.0891 81.151 2.63423 80.5807 2.86072 79.7356L4.64122 73.0908C5.92598 68.2962 6.1386 63.301 5.25604 58.645C4.90541 56.7959 4.72766 54.827 4.72766 52.793C4.72766 50.759 4.90541 48.79 5.25604 46.9407C6.1386 42.2849 5.92598 37.2897 4.64122 32.495L2.86072 25.8502C2.63423 25.0051 3.0891 24.4347 3.29516 24.2287C3.50122 24.0228 4.07141 23.5677 4.91648 23.7942L10.9043 25.3987C14.3475 26.3212 17.9247 26.6725 21.5363 26.4423C22.3078 26.3932 22.8934 25.7279 22.8443 24.9564C22.7952 24.1848 22.129 23.5983 21.3584 23.6484C18.051 23.8591 14.7775 23.5379 11.629 22.6944L5.64116 21.0899C4.07779 20.6711 2.46041 21.1044 1.31573 22.2489C0.17085 23.3937 -0.262275 25.0107 0.1566 26.5747L1.9371 33.2195C3.11366 37.6102 3.31016 42.1745 2.5056 46.4193C2.12254 48.44 1.92829 50.5842 1.92829 52.7928C1.92829 55.0014 2.12254 57.1456 2.5056 59.1663C3.31016 63.4113 3.11348 67.9758 1.9371 72.3661L0.1566 79.0109C-0.262275 80.5747 0.17085 82.1919 1.31573 83.3365C2.17316 84.194 3.29535 84.6522 4.46179 84.6522C4.85273 84.6522 5.24872 84.6007 5.64116 84.4957L11.6288 82.8912C16.1102 81.6905 20.9438 81.5559 25.6065 82.5022C26.364 82.6557 27.103 82.1664 27.2567 81.4089C27.4107 80.6514 26.9211 79.9124 26.1634 79.7587Z" fill="black"/>
<path d="M94.065 72.3662C92.8884 67.9757 92.6919 63.4113 93.4965 59.1663C93.8795 57.1457 94.0738 55.0012 94.0738 52.7928C94.0738 50.5845 93.8795 48.4402 93.4965 46.4193C92.6919 42.1745 92.8884 37.6102 94.065 33.2195L95.8455 26.5747C96.2643 25.011 95.8312 23.3938 94.6863 22.2491C93.5416 21.1044 91.9246 20.6713 90.3607 21.09L84.3731 22.6944C79.2511 24.0671 73.7568 24.0459 68.4841 22.634C62.5603 21.0478 55.6691 20.2434 48.0018 20.2434C40.3346 20.2434 33.4434 21.0478 27.5195 22.634C26.7727 22.8339 26.3295 23.6015 26.5295 24.3482C26.7294 25.095 27.4968 25.5384 28.2436 25.3382C33.9313 23.8151 40.5789 23.043 48.0018 23.043C55.4248 23.043 62.0722 23.8153 67.76 25.3382C73.5063 26.8772 79.5016 26.8978 85.0976 25.3985L91.0852 23.7941C91.9299 23.5674 92.5005 24.0225 92.7067 24.2285C92.9128 24.4346 93.3676 25.005 93.1411 25.85L91.3606 32.4948C90.0759 37.2896 89.8633 42.2848 90.7458 46.9406C91.0963 48.7899 91.274 50.7588 91.274 52.7928C91.274 54.8268 91.0963 56.7958 90.7458 58.6449C89.8633 63.3007 90.0759 68.2961 91.3606 73.0907L93.1411 79.7355C93.3676 80.5805 92.9128 81.1509 92.7067 81.357C92.5006 81.5628 91.9305 82.0181 91.0854 81.7914L85.0978 80.187C79.502 78.6877 73.5069 78.7085 67.76 80.2473C66.8032 80.5037 65.8121 80.7395 64.7956 80.9544C65.7791 79.1898 66.495 77.2513 66.876 75.1873C69.8863 74.2209 72.1335 70.3717 72.3821 66.9956C72.5703 64.4418 71.5756 62.8998 70.7081 62.0561C70.428 61.7837 70.1137 61.5431 69.7749 61.3284V52.5399C69.7749 43.8317 62.6902 36.747 53.982 36.747H42.1451C33.4368 36.747 26.3521 43.8317 26.3521 52.5399V61.2528C25.9651 61.4852 25.6096 61.7512 25.296 62.0563C24.4284 62.9 23.4337 64.442 23.6218 66.9958C23.8835 70.5491 26.3056 74.4444 29.3876 75.2612C31.0696 84.1781 38.9416 90.7751 48.125 90.7751C53.7939 90.7751 58.9597 88.2594 62.4813 84.2385C64.5684 83.8922 66.5878 83.4598 68.4843 82.9517C73.757 81.5396 79.2511 81.5188 84.3731 82.8913L90.3609 84.4957C90.7533 84.6009 91.1491 84.6523 91.5401 84.6523C92.7065 84.6523 93.8289 84.194 94.6863 83.3366C95.8312 82.1917 96.2643 80.5747 95.8455 79.011L94.065 72.3662ZM48.125 87.9753C39.9817 87.9753 33.047 81.8964 31.994 73.835C31.902 73.1304 31.3059 72.6086 30.5863 72.6167C28.7688 72.6431 26.6242 69.6472 26.4136 66.7899C26.3263 65.6036 26.607 64.686 27.2478 64.0627C27.8553 63.4719 28.7996 63.1136 29.9788 63.0268C30.1063 63.0174 30.2306 63.0172 30.3588 63.026C30.7449 63.053 31.1268 62.9178 31.4105 62.6531C31.6942 62.3883 31.8553 62.0177 31.8553 61.6297V55.6481C31.8553 53.2117 33.8375 51.2297 36.2739 51.2297H51.1749C51.948 51.2297 52.5746 50.603 52.5746 49.83C52.5746 49.0569 51.948 48.4303 51.1749 48.4303H36.2739C32.6913 48.4303 29.7114 51.0543 29.1515 54.4811V52.5405C29.1515 45.3759 34.9803 39.5471 42.1449 39.5471H53.9818C61.1463 39.5471 66.9751 45.3759 66.9751 52.5405V53.8852C66.1861 50.7547 63.3478 48.4305 59.9758 48.4305H58.0183C57.2452 48.4305 56.6186 49.0571 56.6186 49.8302C56.6186 50.6032 57.2452 51.2298 58.0183 51.2298H59.976C62.4123 51.2298 64.3944 53.2119 64.3944 55.6483V61.6213C64.3944 61.9938 64.5431 62.3512 64.8073 62.6139C65.0696 62.8747 65.4243 63.021 65.7941 63.021H65.8023C65.8897 63.0208 65.9602 63.0225 66.0253 63.0273C67.2043 63.1142 68.1487 63.4723 68.7562 64.0633C69.3971 64.6865 69.6776 65.6042 69.5904 66.7905C69.3866 69.5568 67.349 72.4955 65.5531 72.6135C64.8862 72.6573 64.3432 73.1666 64.257 73.8296C63.2064 81.8938 56.2713 87.9753 48.125 87.9753Z" fill="black"/>
<path d="M51.2542 74.1285C50.3971 74.8708 49.2414 75.2798 47.9996 75.2798C46.7577 75.2798 45.602 74.8708 44.7449 74.1285C44.1609 73.6223 43.2768 73.6856 42.7706 74.2699C42.2643 74.8541 42.3277 75.7382 42.9119 76.2443C44.2777 77.4276 46.0846 78.0792 47.9996 78.0792C49.9145 78.0792 51.7214 77.4274 53.0872 76.2443C53.6714 75.7382 53.7348 74.8541 53.2286 74.2699C52.7225 73.6855 51.8382 73.6221 51.2542 74.1285Z" fill="black"/>
<path d="M59.3762 64.0298C58.6386 63.7993 57.8533 64.2114 57.6232 64.9496C57.4151 65.6175 56.8044 66.066 56.1037 66.066C55.4031 66.066 54.7924 65.6173 54.5842 64.9496C54.3542 64.2116 53.5695 63.7999 52.8313 64.0298C52.0933 64.2598 51.6814 65.0447 51.9114 65.7827C52.4861 67.6266 54.1708 68.8656 56.1036 68.8656C58.0363 68.8656 59.721 67.6266 60.2957 65.7827C60.5261 65.0445 60.1144 64.2598 59.3762 64.0298Z" fill="black"/>
<path d="M44.334 65.7827C44.564 65.0447 44.1523 64.2598 43.4141 64.0297C42.6765 63.7993 41.8912 64.2114 41.6611 64.9496C41.453 65.6175 40.8423 66.066 40.1418 66.066C39.4413 66.066 38.8305 65.6173 38.6223 64.9496C38.3923 64.2116 37.6074 63.7999 36.8694 64.0297C36.1314 64.2598 35.7195 65.0447 35.9495 65.7827C36.5242 67.6265 38.2091 68.8655 40.1416 68.8655C42.0746 68.8655 43.7593 67.6265 44.334 65.7827Z" fill="black"/>
<path d="M71.1279 42.8276C71.1279 43.9768 71.7872 44.3535 72.9174 44.3535H81.3002C82.1855 44.3535 82.9014 43.9012 82.9014 43.0537C82.9014 42.206 82.1855 41.7538 81.3002 41.7538H75.2722L82.374 33.3146C82.6567 32.9943 82.8073 32.58 82.8073 32.2033C82.8073 31.1295 82.1668 30.7905 81.3757 30.7905H73.2379C72.3525 30.7905 71.6366 31.2425 71.6366 32.0902C71.6366 32.9379 72.3525 33.3902 73.2379 33.3902H78.6255L71.6366 41.6409C71.3541 41.9799 71.1279 42.3378 71.1279 42.8276Z" fill="black"/>
<path d="M77.997 20.1501H84.5585C85.0348 20.1501 85.5992 19.8856 85.5992 19.1447C85.5992 18.4039 85.0348 18.1394 84.5585 18.1394H80.3253L85.0877 12.9182C85.3346 12.6537 85.4934 12.3361 85.4934 12.0539C85.4934 11.3836 85.1229 10.9249 84.435 10.9249H78.3144C77.8382 10.9249 77.2738 11.1897 77.2738 11.9305C77.2738 12.6713 77.8382 12.9359 78.3144 12.9359H82.0363L77.1857 18.2097C76.9563 18.4566 76.8506 18.7741 76.8506 19.1446C76.8506 19.6562 77.2385 20.1501 77.997 20.1501Z" fill="black"/>
<path d="M67.6703 12.128H72.5802C72.9366 12.128 73.3589 11.93 73.3589 11.3757C73.3589 10.8213 72.9364 10.6235 72.5802 10.6235H69.4126L72.9762 6.71672C73.1611 6.51872 73.2797 6.28115 73.2797 6.07003C73.2797 5.56847 73.0026 5.22534 72.4877 5.22534H67.9079C67.5514 5.22534 67.1292 5.42334 67.1292 5.97778C67.1292 6.53222 67.5516 6.73003 67.9079 6.73003H70.6928L67.0632 10.6763C66.8916 10.8612 66.8125 11.0988 66.8125 11.3759C66.8125 11.7584 67.1029 12.128 67.6703 12.128Z" fill="black"/>
</g>
<defs>
<clipPath id="clip0_432:7438">
<rect width="96" height="96" fill="white"/>
</clipPath>
</defs>
</svg>
