<svg width="96" height="96" viewBox="0 0 96 96" fill="none" xmlns="http://www.w3.org/2000/svg">
<g clip-path="url(#clip0_432:7497)">
<path d="M9.92387 79.7487C13.421 79.7487 16.2559 76.9137 16.2559 73.4166C16.2559 69.9195 13.421 67.0845 9.92387 67.0845C6.42676 67.0845 3.5918 69.9195 3.5918 73.4166C3.5918 76.9137 6.42676 79.7487 9.92387 79.7487Z" fill="#F5A871"/>
<path d="M47.1241 69.3745C50.6212 69.3745 53.4561 66.5395 53.4561 63.0424C53.4561 59.5453 50.6212 56.7103 47.1241 56.7103C43.627 56.7103 40.792 59.5453 40.792 63.0424C40.792 66.5395 43.627 69.3745 47.1241 69.3745Z" fill="#F5A871"/>
<path d="M46.586 85.1392C44.3035 89.1948 40.4704 92.3777 35.631 93.7264C25.9582 96.4239 15.9277 90.7677 13.2303 81.093L8.65774 64.7005L6.45117 56.7894L41.4855 47.0183L45.6744 62.0343L48.2644 71.3219C49.6133 76.1592 48.8759 81.0874 46.586 85.1392Z" fill="#FDD1A7"/>
<path d="M45.6748 62.0345L31.12 66.0938C30.012 66.4032 28.8728 66.5588 27.7314 66.5588C24.9914 66.5588 22.2789 65.6398 20.0909 63.9706C19.033 63.1629 17.7565 62.7202 16.4985 62.7202C16.0076 62.7202 15.5203 62.7869 15.0478 62.9184L8.65774 64.7006L6.45117 56.7895L41.4855 47.0184L45.6748 62.0345Z" fill="#FFBC8A"/>
<path d="M33.3466 38.2162L18.7131 42.2975C16.301 42.9702 14.891 45.4708 15.5638 47.8831C15.5638 47.8831 13.3257 47.4147 10.9136 48.0873L9.79683 48.3987C6.88337 49.2114 5.18025 52.2319 5.99272 55.1454L8.01047 62.3797L14.402 60.5971C16.881 59.9058 19.5053 60.4942 21.5514 62.0551C24.004 63.9263 27.2728 64.666 30.4735 63.7733L45.0282 59.7139L40.0935 42.0202C39.2806 39.1069 36.2601 37.4038 33.3466 38.2162Z" fill="#FDDD45"/>
<path d="M40.0961 42.021L45.0307 59.7139L40.7569 60.9058L35.8223 43.213C35.0092 40.2982 31.9911 38.5962 29.0762 39.4092L33.3472 38.218C36.2618 37.4052 39.2831 39.1062 40.0961 42.021Z" fill="#F8C52D"/>
<path d="M39.814 75.6822C40.7784 79.14 38.757 82.7251 35.2992 83.6894C31.8415 84.6538 28.2563 82.6325 27.292 79.1747L39.814 75.6822Z" fill="#FC7CB6"/>
<path d="M49.9844 29.6913C53.3963 29.6913 56.1621 26.9254 56.1621 23.5136C56.1621 20.1017 53.3963 17.3358 49.9844 17.3358C46.5725 17.3358 43.8066 20.1017 43.8066 23.5136C43.8066 26.9254 46.5725 29.6913 49.9844 29.6913Z" fill="#C47A4A"/>
<path d="M86.2295 39.9836C89.6414 39.9836 92.4073 37.2177 92.4073 33.8058C92.4073 30.3939 89.6414 27.6281 86.2295 27.6281C82.8176 27.6281 80.0518 30.3939 80.0518 33.8058C80.0518 37.2177 82.8176 39.9836 86.2295 39.9836Z" fill="#C47A4A"/>
<path d="M51.7475 21.3153L48.8308 31.5858C46.1538 41.0124 51.6254 50.8243 61.0521 53.5013C70.4788 56.1783 80.2906 50.7067 82.9676 41.28L85.8842 31.0096C88.5613 21.5829 83.0896 11.7711 73.663 9.09407C64.2363 6.41723 54.4245 11.8888 51.7475 21.3153Z" fill="#E89A5E"/>
<path d="M85.552 20.2657C84.7683 20.8979 83.9316 21.4603 83.0571 21.948C79.0906 24.1617 74.2801 24.859 69.5687 23.521C63.8139 21.8867 59.5334 17.5924 57.6797 12.3503C58.4635 11.718 59.3007 11.1538 60.1778 10.6646C64.1411 8.4545 68.9522 7.7551 73.6657 9.0937C79.4204 10.7278 83.7012 15.0221 85.552 20.2657Z" fill="#688D97"/>
<path d="M85.5521 20.2656C84.7684 20.8974 83.931 21.4606 83.0566 21.9479C79.0901 24.1618 74.2804 24.8586 69.5691 23.5209C66.0787 22.5298 63.1293 20.5604 60.9375 17.9944C62.5382 19.0189 64.3132 19.8286 66.2362 20.3751C71.5201 21.8758 76.9151 21.094 81.3635 18.6115C82.2639 18.1093 83.1309 17.535 83.9462 16.8941C84.5981 17.9573 85.1372 19.0874 85.5521 20.2656Z" fill="#557983"/>
<path d="M70.05 39.7172C69.0931 43.0863 65.5864 45.042 62.2173 44.0852C58.8482 43.1283 56.8925 39.6216 57.8493 36.2525L70.05 39.7172Z" fill="#FC7CB6"/>
<path d="M61.9381 74.9162L62.5762 72.6943C62.7961 71.9287 63.548 71.4436 64.3361 71.5587L75.2488 73.1538C76.2024 73.2932 76.8144 74.2416 76.5484 75.168L75.0937 80.2331C74.8276 81.1596 73.8057 81.6387 72.9233 81.2507L62.8272 76.8123C62.0982 76.492 61.7181 75.6818 61.9381 74.9162Z" fill="#FC7CB6"/>
<path d="M76.547 75.168L75.0927 80.2333C74.8259 81.1596 73.8032 81.6394 72.9214 81.2505L71.1836 80.4872C71.6375 80.3186 72.0118 79.9444 72.1562 79.4368L73.6124 74.3715C73.7699 73.8176 73.6161 73.2562 73.2604 72.8634L75.2465 73.1542C76.2005 73.2932 76.812 74.2418 76.547 75.168Z" fill="#FB5FA7"/>
<path d="M60.8869 64.3178L60.7265 62.0116C60.6712 61.217 61.212 60.5039 61.992 60.3426L72.7922 58.1093C73.7361 57.9141 74.6354 58.596 74.7023 59.5576L75.0677 64.8148C75.1345 65.7764 74.3382 66.5761 73.3764 66.5135L62.3712 65.7957C61.5763 65.7439 60.9422 65.1124 60.8869 64.3178Z" fill="#FC7CB6"/>
<path d="M73.3744 66.5124L71.1124 66.3643C71.4255 66.053 71.6089 65.6103 71.5736 65.1286L71.2087 59.8727C71.1699 59.3169 70.853 58.8537 70.4102 58.6017L72.789 58.109C73.7339 57.9145 74.6324 58.5963 74.6992 59.5578L75.0659 64.8157C75.1327 65.7768 74.336 66.5754 73.3744 66.5124Z" fill="#FB5FA7"/>
<path d="M55.2125 83.1372L56.5721 81.2676C57.0405 80.6233 57.9132 80.4247 58.6143 80.8026L68.3233 86.0338C69.1718 86.4909 69.4225 87.5914 68.8556 88.371L65.7564 92.6332C65.1895 93.4127 64.0654 93.5136 63.3689 92.8472L55.3997 85.2234C54.824 84.6727 54.7441 83.7815 55.2125 83.1372Z" fill="#FC7CB6"/>
<path d="M68.8531 88.3704L65.7536 92.6333C65.1866 93.4133 64.064 93.5133 63.3674 92.8463L61.8057 91.353C62.3819 91.4586 63.0006 91.2381 63.3749 90.7232L66.4744 86.4619C66.756 86.0747 66.8357 85.6078 66.7412 85.1816L68.3215 86.0339C69.1698 86.4917 69.4199 87.5922 68.8531 88.3704Z" fill="#FB5FA7"/>
<path d="M32.6717 19.1413L31.4491 21.1034C31.028 21.7793 30.1718 22.04 29.4454 21.7131L19.3874 17.189C18.5084 16.7936 18.1797 15.7139 18.6895 14.8958L21.4764 10.423C21.9861 9.60496 23.1002 9.4242 23.8426 10.039L32.3362 17.0739C32.9495 17.582 33.093 18.4654 32.6717 19.1413Z" fill="#64E0C4"/>
<path d="M23.8413 10.0385L32.3335 17.0737C32.9472 17.5816 33.0908 18.4644 32.6693 19.1413L31.4471 21.1028C31.4085 21.1649 31.3665 21.2232 31.32 21.2768C31.6116 20.6314 31.4421 19.8621 30.8842 19.4001L22.3913 12.3662C21.6499 11.7504 20.5354 11.9317 20.0254 12.7504L21.4756 10.4228C21.9846 9.60551 23.099 9.424 23.8413 10.0385Z" fill="#27D1B3"/>
<path d="M31.7879 29.6859L31.3101 31.9478C31.1455 32.7271 30.4302 33.2648 29.6359 33.2062L18.6372 32.3948C17.676 32.3239 16.9978 31.4217 17.1969 30.4787L18.286 25.3225C18.4851 24.3795 19.4703 23.8284 20.378 24.1522L30.7654 27.8579C31.5156 28.1257 31.9525 28.9066 31.7879 29.6859Z" fill="#64E0C4"/>
<path d="M20.3803 24.1517L30.7665 27.8581C31.5169 28.1255 31.9539 28.9059 31.7891 29.6861L31.3115 31.9473C31.2964 32.0189 31.2769 32.0879 31.2515 32.1543C31.3048 31.4481 30.8823 30.783 30.2 30.5396L19.8135 26.8347C18.9062 26.5098 17.921 27.0612 17.7217 28.0049L18.2883 25.3217C18.4875 24.3799 19.4726 23.8283 20.3803 24.1517Z" fill="#27D1B3"/>
<path d="M42.0471 13.5693L40.2274 14.9949C39.6003 15.4862 38.7067 15.4382 38.1359 14.8826L30.2316 7.1913C29.5408 6.51909 29.6014 5.39199 30.3601 4.79779L34.5086 1.54794C35.2675 0.953543 36.3762 1.16467 36.8633 1.99626L42.4386 11.5118C42.8414 12.199 42.6741 13.078 42.0471 13.5693Z" fill="#64E0C4"/>
<path d="M36.8603 1.99609L42.4341 11.5115C42.8371 12.1987 42.6702 13.0775 42.0424 13.5691L40.2232 14.9944C40.1657 15.0396 40.1062 15.0799 40.0444 15.1144C40.539 14.6076 40.6429 13.8266 40.2767 13.2016L34.7014 3.68721C34.2152 2.85506 33.1059 2.6443 32.3467 3.23907L34.5054 1.54796C35.2635 0.954125 36.3728 1.16488 36.8603 1.99609Z" fill="#27D1B3"/>
<path d="M53.8642 66.843C54.8794 65.0424 55.1327 62.9545 54.5775 60.9635C54.0223 58.9726 52.7247 57.3169 50.9243 56.3018C49.2067 55.3335 47.2278 55.0603 45.3207 55.5188L41.4508 41.6426C40.4309 37.9868 36.627 35.8423 32.9715 36.8617L27.5509 38.3736C26.8028 38.5823 26.3655 39.3578 26.574 40.106C26.7825 40.8541 27.5586 41.2916 28.3064 41.0827L33.727 39.5708C35.8888 38.9685 38.1383 40.2361 38.7413 42.3982L43.2982 58.7375L30.0982 62.419C27.4223 63.1651 24.6193 62.6252 22.4069 60.9373C19.9474 59.0611 16.8929 58.4431 14.0267 59.2428L8.98973 60.6476L7.35 54.768C6.74698 52.606 8.01545 50.3567 10.1772 49.7537L11.294 49.4422C13.3239 48.8762 15.2639 49.257 15.2785 49.2598C15.7593 49.3607 16.2575 49.203 16.5931 48.8447C16.9287 48.4861 17.053 47.9786 16.9212 47.5057C16.4577 45.8444 17.4326 44.1158 19.0937 43.6524L22.2374 42.7757C22.9855 42.5672 23.4228 41.7914 23.2143 41.0433C23.0058 40.295 22.2299 39.8581 21.4819 40.0666L18.3382 40.9433C15.8311 41.6426 14.1473 43.8593 14.0031 46.3233C13.0464 46.3011 11.8166 46.3769 10.5385 46.7333L9.42175 47.0448C5.76613 48.0643 3.62125 51.868 4.64072 55.5238L7.57556 66.0466C3.6325 67.3027 1.35206 71.4779 2.47278 75.4962C3.42606 78.9135 6.54316 81.1564 9.92933 81.1564C10.5243 81.1564 11.1275 81.0826 11.7288 80.9382L11.8775 81.4716C14.2907 90.1243 22.1828 95.8033 30.7567 95.8033C32.4943 95.8033 34.2603 95.5698 36.0138 95.0808C46.4202 92.1784 52.5252 81.3511 49.6228 70.9447L49.4747 70.4138C51.3438 69.8187 52.8959 68.5605 53.8642 66.843ZM5.18186 74.7398C4.47778 72.2156 5.88239 69.5933 8.3314 68.7567L10.9732 78.2291C8.44447 78.7805 5.88595 77.264 5.18186 74.7398ZM35.2582 92.3708C26.3457 94.8562 17.0724 89.6278 14.5868 80.7152L9.74557 63.3565L14.7824 61.9517C16.7917 61.3914 18.9491 61.8366 20.7012 63.1733C22.76 64.744 25.2069 65.5614 27.7098 65.5614C28.756 65.5614 29.8124 65.4185 30.8539 65.1279L44.0539 61.4464L46.9134 71.6992C49.3991 80.6119 44.1705 89.885 35.2582 92.3708ZM51.4143 65.4616C50.8148 66.5248 49.8643 67.3116 48.7187 67.7021L46.0769 58.2297C47.2597 57.9709 48.48 58.1523 49.5429 58.7517C50.689 59.3981 51.5149 60.4518 51.8682 61.7192C52.2216 62.9864 52.0604 64.3156 51.4143 65.4616Z" fill="black"/>
<path d="M39.4384 74.3278L26.9164 77.8201C26.5571 77.9202 26.2524 78.1591 26.069 78.484C25.8858 78.809 25.8391 79.1933 25.9395 79.5526C26.9134 83.0442 30.0982 85.3357 33.5578 85.3357C34.2589 85.3357 34.9716 85.2415 35.6791 85.0441C37.7133 84.4769 39.4048 83.1512 40.4419 81.3118C41.4792 79.4722 41.738 77.3389 41.1707 75.3045C40.9622 74.5565 40.1863 74.1192 39.4384 74.3278ZM37.9921 79.9304C37.3239 81.1155 36.2341 81.9696 34.9236 82.335C32.6874 82.9583 30.3773 81.9831 29.2167 80.0984L38.6509 77.4672C38.6456 78.3218 38.4234 79.1654 37.9921 79.9304Z" fill="black"/>
<path d="M27.0193 72.9531C26.4269 70.8305 24.2183 69.5847 22.0948 70.1767C19.9719 70.7688 18.7263 72.9778 19.3182 75.1009C19.4917 75.7227 20.0566 76.1298 20.6722 76.1298C20.7971 76.1298 20.9244 76.1129 21.0508 76.0778C21.7989 75.8691 22.2362 75.0936 22.0277 74.3455C21.852 73.7162 22.2212 73.0614 22.8504 72.8859C23.4795 72.7104 24.1347 73.0796 24.31 73.7089C24.5189 74.457 25.2948 74.8945 26.0425 74.6856C26.7907 74.4769 27.228 73.7012 27.0193 72.9531Z" fill="black"/>
<path d="M38.5676 65.5825C36.4447 66.1746 35.1989 68.3834 35.7909 70.5066C35.9643 71.1283 36.5293 71.5356 37.1448 71.5356C37.2697 71.5356 37.397 71.5187 37.5234 71.4837C38.2714 71.275 38.7088 70.4994 38.5003 69.7513C38.3248 69.122 38.694 68.4671 39.3233 68.2916C39.9522 68.1162 40.6073 68.4853 40.7826 69.1145C40.9915 69.8627 41.7674 70.3003 42.5152 70.0912C43.2631 69.8825 43.7004 69.1068 43.4919 68.3587C42.8996 66.2357 40.6906 64.99 38.5676 65.5825Z" fill="black"/>
<path d="M88.2995 26.5106C88.1905 26.4796 88.0805 26.4521 87.9702 26.426C88.0212 23.1053 87.2012 19.8145 85.5403 16.8362C83.0491 12.3689 78.9673 9.1389 74.0468 7.7416C69.25 6.37937 64.1864 6.92333 59.7896 9.27446C56.6875 10.9331 54.1522 13.3683 52.3885 16.3209C52.2788 16.2844 52.1682 16.2499 52.057 16.2184C48.0348 15.0765 43.8325 17.4193 42.6896 21.4421C41.5758 25.3643 43.7764 29.4555 47.6156 30.7167L47.4778 31.202C46.0805 36.1225 46.6829 41.2924 49.1741 45.7599C51.6653 50.2274 55.7473 53.4572 60.6677 54.8545C62.3781 55.3401 64.1446 55.5837 65.91 55.5837C67.3826 55.5837 68.8546 55.4142 70.2908 55.0744C71.0467 54.8956 71.5145 54.138 71.3358 53.3822C71.1571 52.6262 70.3983 52.1591 69.6438 52.3372C66.9508 52.974 64.1129 52.9089 61.4361 52.1488C57.2382 50.9568 53.756 48.2012 51.6306 44.39C49.5053 40.5788 48.9913 36.168 50.1835 31.9704L51.5652 27.1046C51.7775 26.3576 51.3436 25.5798 50.5965 25.3675C49.8497 25.1553 49.0717 25.589 48.8595 26.3362L48.3847 28.0078C47.2919 27.6204 46.3876 26.8595 45.8178 25.8378C45.1969 24.7246 45.0471 23.4364 45.3951 22.2105C46.0973 19.7388 48.636 18.2762 51.1109 18.8783C50.9294 19.3214 50.7587 19.7703 50.6093 20.2297C50.3693 20.9683 50.7732 21.7616 51.5118 22.002C52.2494 22.2416 53.0437 21.8383 53.2839 21.0995C54.0917 18.6158 55.434 16.4606 57.1399 14.7153C59.5023 19.6345 63.8975 23.3732 69.1823 24.874C70.9186 25.367 72.6857 25.6111 74.442 25.6111C77.6641 25.6111 80.8497 24.7894 83.7401 23.1765C84.0853 22.984 84.423 22.7775 84.7558 22.5641C85.3543 25.1982 85.2894 27.9549 84.5308 30.6259L81.6141 40.8964C80.5495 44.6454 78.1764 47.8945 74.9316 50.0452C74.2842 50.4744 74.1073 51.347 74.5365 51.9945C74.8071 52.4027 75.2541 52.6239 75.71 52.6239C75.9768 52.6239 76.2466 52.548 76.4857 52.3895C80.2898 49.8678 83.072 46.059 84.3198 41.6646L84.4584 41.1765C85.0485 41.3185 85.6403 41.391 86.2243 41.391C89.5293 41.3908 92.5763 39.2107 93.5228 35.878C94.6657 31.855 92.322 27.6528 88.2995 26.5106ZM82.37 20.7198C78.5602 22.8461 74.1497 23.3605 69.9511 22.1679C65.1997 20.8186 61.2922 17.3479 59.3675 12.8129C63.2612 10.0547 68.3196 9.03877 73.2786 10.4471C77.4764 11.6391 80.9588 14.3947 83.084 18.2059C83.3711 18.7208 83.6263 19.2475 83.8545 19.7823C83.378 20.1191 82.8822 20.4342 82.37 20.7198ZM90.8175 35.1094C90.4695 36.3355 89.6647 37.3523 88.5515 37.9732C87.5296 38.5432 86.3605 38.7151 85.2272 38.4704L87.2367 31.394C87.4364 30.691 87.5937 29.983 87.712 29.2725C90.1314 30.0634 91.5188 32.6398 90.8175 35.1094Z" fill="black"/>
<path d="M61.8342 45.4378C62.539 45.6379 63.2489 45.7334 63.9477 45.7334C67.324 45.7334 70.4366 43.506 71.4037 40.1012C71.616 39.3542 71.1821 38.5765 70.4351 38.3642L58.2346 34.8993C57.488 34.6872 56.7098 35.1207 56.4976 35.8679C55.932 37.8589 56.1758 39.9505 57.1838 41.7582C58.1917 43.5656 59.8432 44.8723 61.8342 45.4378ZM68.1177 40.63C66.9769 42.4252 64.7502 43.3423 62.6024 42.7321C61.3343 42.3721 60.2824 41.5396 59.6403 40.3883C59.2334 39.6589 59.0221 38.8568 59.0135 38.0445L68.1177 40.63Z" fill="black"/>
<path d="M59.387 31.5282C59.5154 31.5646 59.6446 31.582 59.7717 31.582C60.3847 31.582 60.9482 31.1781 61.1238 30.5594C61.7162 28.4726 60.5006 26.2929 58.414 25.7001C57.4028 25.4131 56.3407 25.5368 55.4233 26.0485C54.5053 26.5604 53.8417 27.3991 53.5548 28.41C53.3427 29.157 53.7764 29.9348 54.5236 30.1468C55.2705 30.3587 56.0484 29.925 56.2605 29.178C56.3424 28.89 56.5314 28.6509 56.793 28.505C57.0548 28.3592 57.3574 28.3237 57.6458 28.4057C58.2407 28.5746 58.5873 29.196 58.4183 29.791C58.2061 30.5386 58.6398 31.3161 59.387 31.5282Z" fill="black"/>
<path d="M75.4386 36.0863C75.567 36.1227 75.6962 36.1402 75.8235 36.1402C76.4363 36.1402 76.9998 35.7365 77.1757 35.1177C77.7682 33.0309 76.5528 30.8512 74.4658 30.2583C73.455 29.9714 72.3926 30.095 71.4751 30.6067C70.5573 31.1184 69.8937 31.9571 69.6066 32.9679C69.3943 33.715 69.8282 34.4927 70.5753 34.705C71.3217 34.9167 72.1001 34.4835 72.3123 33.7363C72.3943 33.4481 72.5833 33.2091 72.845 33.0632C73.1066 32.9171 73.4094 32.8819 73.6976 32.9638C74.2926 33.1328 74.6391 33.7541 74.4701 34.3489C74.2577 35.0963 74.6914 35.8741 75.4386 36.0863Z" fill="black"/>
<path d="M75.4512 71.7625L64.5385 70.1674C63.0599 69.9516 61.636 70.8709 61.2234 72.3063L60.5854 74.5282C60.1732 75.9635 60.8932 77.4992 62.2603 78.1002L72.3566 82.5386C72.7413 82.7078 73.1522 82.7921 73.5632 82.7921C73.998 82.7921 74.433 82.6974 74.836 82.5084C75.6194 82.1411 76.2057 81.4533 76.4446 80.6216L77.8992 75.5565C78.1379 74.7247 78.0059 73.8307 77.5368 73.1037C77.0675 72.3766 76.3073 71.8877 75.4512 71.7625ZM75.1956 74.78L73.7409 79.8451C73.7256 79.8989 73.692 79.9381 73.6416 79.9617C73.5907 79.9855 73.5392 79.9861 73.4886 79.9636L63.3923 75.5252C63.3078 75.488 63.2633 75.3932 63.2888 75.3045L63.9269 73.0827C63.9498 73.0026 64.0238 72.9485 64.105 72.9485C64.1138 72.9485 64.1228 72.949 64.1317 72.9505L75.0443 74.5456C75.0996 74.5537 75.1429 74.5816 75.1733 74.6285C75.2037 74.6754 75.2112 74.7264 75.1956 74.78Z" fill="black"/>
<path d="M59.3236 62.1093L59.4837 64.4153C59.5872 65.905 60.7889 67.1019 62.2792 67.199L73.2845 67.9168C73.3499 67.9211 73.4148 67.9231 73.4799 67.9231C74.2743 67.9231 75.0394 67.6074 75.6038 67.0405C76.2145 66.4274 76.53 65.5806 76.4702 64.7173L76.105 59.46C76.045 58.5968 75.615 57.8019 74.9255 57.2792C74.2359 56.7562 73.3541 56.5573 72.5071 56.7322L61.707 58.9656C60.2448 59.2679 59.2203 60.6192 59.3236 62.1093ZM62.2766 61.7199L73.0767 59.4865C73.0904 59.4837 73.1039 59.4822 73.1171 59.4822C73.1564 59.4822 73.193 59.4949 73.2264 59.5202C73.2708 59.554 73.2954 59.5994 73.2993 59.6551L73.6648 64.9123C73.6687 64.968 73.6505 65.0164 73.6111 65.056C73.5718 65.0955 73.523 65.1139 73.4679 65.1102L62.4626 64.3924C62.3705 64.3864 62.2961 64.3125 62.2899 64.2204C62.2899 64.2204 62.2899 64.2203 62.2897 64.2203L62.1296 61.9143C62.123 61.8221 62.1864 61.7386 62.2766 61.7199Z" fill="black"/>
<path d="M68.993 84.7958L59.284 79.5648C57.9692 78.856 56.3155 79.2327 55.4375 80.4406L54.0778 82.3102C54.0778 82.3102 54.0777 82.3102 54.0777 82.3104C53.1996 83.5181 53.3511 85.2074 54.43 86.2398L62.3994 93.8638C62.9596 94.3997 63.7027 94.6954 64.4713 94.6954C64.5606 94.6954 64.6498 94.6914 64.7394 94.6834C65.6012 94.6061 66.3874 94.1604 66.8963 93.4606L69.9958 89.1982C70.5045 88.4985 70.6862 87.6133 70.494 86.7697C70.3018 85.9257 69.7547 85.2062 68.993 84.7958ZM67.721 87.5439L64.6217 91.8061C64.5887 91.8513 64.5439 91.8766 64.4882 91.8816C64.4346 91.8869 64.3837 91.8696 64.3436 91.831L56.3744 84.2072C56.3079 84.1435 56.2985 84.039 56.3527 83.9644L57.7125 82.0946C57.7665 82.0203 57.8683 81.9965 57.95 82.0406L67.6589 87.2716C67.7082 87.2982 67.7393 87.3393 67.7517 87.3937C67.7641 87.4481 67.7538 87.4989 67.721 87.5439Z" fill="black"/>
<path d="M18.8114 18.4716L28.8694 22.9957C29.2637 23.1729 29.6794 23.2575 30.0908 23.2575C31.1005 23.2575 32.0823 22.7475 32.6435 21.8469L33.866 19.885H33.8662C34.6558 18.6175 34.3839 16.9434 33.2339 15.9909L24.7403 8.95585C24.0739 8.40402 23.2024 8.16701 22.3475 8.30558C21.4935 8.44415 20.7412 8.94497 20.2835 9.67943L17.4966 14.152C17.0391 14.8865 16.9209 15.7824 17.1728 16.6102C17.4248 17.4381 18.022 18.1166 18.8114 18.4716ZM19.8837 15.6395L22.6704 11.1667C22.6999 11.1193 22.743 11.0906 22.7981 11.0816C22.8092 11.0799 22.8199 11.079 22.8306 11.079C22.8729 11.079 22.9117 11.0934 22.9461 11.1219L31.4397 18.1569C31.5108 18.2156 31.5276 18.3191 31.4789 18.3975L30.2564 20.3594C30.2076 20.4376 30.1077 20.4687 30.0229 20.4305L19.9649 15.9065C19.9141 15.8834 19.88 15.8448 19.8637 15.7914C19.8473 15.7381 19.8541 15.6869 19.8837 15.6395Z" fill="black"/>
<path d="M18.5391 33.7976L29.5378 34.6089C29.6115 34.6143 29.6846 34.617 29.7573 34.617C31.1586 34.617 32.3982 33.6275 32.6914 32.2385L33.1692 29.9766C33.4778 28.5155 32.6498 27.0352 31.2433 26.5334L20.8561 22.8277C20.041 22.5371 19.1406 22.6125 18.3851 23.0349C17.63 23.4574 17.0941 24.1853 16.9156 25.0317L15.8264 30.1881C15.6477 31.0349 15.8433 31.9171 16.3632 32.6088C16.8832 33.3009 17.6761 33.734 18.5391 33.7976ZM18.5782 30.7695L19.6675 25.6131C19.6791 25.5586 19.7096 25.5171 19.7582 25.4899C19.7871 25.4738 19.8169 25.4657 19.8475 25.4657C19.8683 25.4657 19.8897 25.4697 19.911 25.4772L30.2985 29.1829C30.3853 29.214 30.4365 29.3053 30.4175 29.3957L29.9398 31.6576C29.9207 31.7478 29.8395 31.8083 29.7448 31.8042L18.7461 30.9929C18.6904 30.9887 18.6452 30.964 18.6116 30.9194C18.5779 30.8745 18.5666 30.8241 18.5782 30.7695Z" fill="black"/>
<path d="M37.155 15.8905C37.7313 16.4513 38.4882 16.7365 39.2478 16.7365C39.899 16.7365 40.5519 16.527 41.0945 16.102L42.9143 14.6764C42.9143 14.6764 42.9145 14.6764 42.9145 14.6762C44.09 13.7551 44.407 12.0892 43.6521 10.8008L38.0766 1.28525C37.6392 0.538603 36.9008 0.0175239 36.0506 -0.144294C35.2001 -0.306674 34.3222 -0.092917 33.6414 0.440725L29.4928 3.69058C28.8116 4.22422 28.3944 5.02581 28.3481 5.88983C28.3016 6.75386 28.6307 7.59557 29.2507 8.19915L37.155 15.8905ZM31.2274 5.90483L35.3762 2.65479C35.4099 2.62836 35.4472 2.61504 35.4876 2.61504C35.4997 2.61504 35.5121 2.61617 35.5249 2.61879C35.5796 2.62929 35.6218 2.65892 35.6501 2.70711L41.2252 12.2227C41.2721 12.3023 41.2524 12.4055 41.1797 12.4625L39.3601 13.8877C39.2877 13.9449 39.1827 13.9393 39.1165 13.8748L31.2124 6.18347C31.1725 6.14447 31.1537 6.09646 31.1565 6.04078C31.1595 5.9849 31.1834 5.93933 31.2274 5.90483Z" fill="black"/>
</g>
<defs>
<clipPath id="clip0_432:7497">
<rect width="96" height="96" fill="white"/>
</clipPath>
</defs>
</svg>
