<svg width="96" height="96" viewBox="0 0 96 96" fill="none" xmlns="http://www.w3.org/2000/svg">
<g clip-path="url(#clip0_432:7479)">
<path d="M68.5524 89.4098H29.9902C30.3984 85.1008 30.9426 81.2307 31.2767 79.0213C31.4715 77.7519 32.2183 76.6278 33.3207 75.9676C35.4204 74.7091 37.6374 73.7117 39.7279 72.9295C43.5916 71.4791 47.0258 70.7634 48.5022 70.4973C49.0124 70.4045 49.5305 70.4045 50.039 70.4973C51.5156 70.7632 54.9495 71.4791 58.8132 72.9295C60.9035 73.7117 63.1208 74.7091 65.2205 75.9676C66.3228 76.6278 67.0696 77.7519 67.2645 79.0213C67.5986 81.2307 68.1427 85.1008 68.5524 89.4098Z" fill="#95D6A4"/>
<path d="M36.7645 74.1602C35.9127 74.8746 35.3344 76.0775 35.1828 77.435C34.9075 79.949 34.4483 84.4559 34.122 89.4098H29.9893C30.3975 85.1007 30.9416 81.2306 31.2757 79.0213C31.4705 77.7519 32.2174 76.6278 33.3197 75.9676C34.447 75.292 35.6082 74.6922 36.7645 74.1602Z" fill="#78C2A4"/>
<path d="M72.6123 46.862L38.3458 47.3484L24.366 47.5473C24.366 47.5473 17.3449 37.2818 19.4729 27.2486C21.6007 17.2179 34.5215 23.2972 34.5215 23.2972C34.5215 23.2972 41.5497 12.5667 50.8209 12.5667C64.597 12.5667 70.396 25.7293 76.6286 21.0182C76.6284 21.0184 84.802 36.4694 72.6123 46.862Z" fill="#9D6B6B"/>
<path d="M38.3458 47.3482L24.366 47.5472C24.366 47.5472 17.3449 37.2817 19.4729 27.2485C21.6007 17.2177 34.5215 23.297 34.5215 23.297C34.5215 23.297 30.0907 30.7038 38.1206 36.6155C40.7108 38.5205 40.2124 42.6421 38.3458 47.3482Z" fill="#8B5E5E"/>
<path d="M54.0174 63.3874V71.3136C54.0174 73.9342 51.8924 76.0593 49.2716 76.0593C46.6496 76.0593 44.5244 73.9343 44.5244 71.3136V63.3874H54.0174Z" fill="#FFDDCE"/>
<path d="M50.8222 75.8009C50.3365 75.968 49.8153 76.0595 49.2726 76.0595C46.6506 76.0595 44.5254 73.9345 44.5254 71.3137V63.3875H47.6245V71.3137C47.6245 73.3931 48.9614 75.1596 50.8222 75.8009Z" fill="#FFCBBE"/>
<path d="M29.4432 56.7877C26.0212 56.7877 23.2471 54.0135 23.2471 50.5916C23.2471 50.1206 23.2996 49.6619 23.3991 49.2211C24.203 45.6611 29.4432 46.245 29.4432 49.8946H69.0985C69.0985 46.245 74.3387 45.6613 75.1425 49.2211C75.2421 49.6619 75.2946 50.1207 75.2946 50.5916C75.2946 54.0135 72.5205 56.7877 69.0985 56.7877" fill="#FFCBBE"/>
<path d="M44.5244 63.3878H54.0172V70.6899H44.5244V63.3878Z" fill="#FFCBBE"/>
<path d="M69.0973 42.6157V53.7248C69.0973 61.7067 62.6275 68.1767 54.6454 68.1767H43.8933C35.9114 68.1767 29.4414 61.7069 29.4414 53.7248V42.6157C34.5622 42.6157 38.7148 38.4655 38.7148 33.3445C38.7148 33.3445 38.7891 33.4141 38.9353 33.541C40.4884 34.8806 50.2771 42.6157 69.0973 42.6157Z" fill="#FFDDCE"/>
<path d="M53.3892 68.1767H43.8953C35.9134 68.1767 29.4434 61.7069 29.4434 53.7248V42.6157C34.5641 42.6157 38.7168 38.4655 38.7168 33.3445C38.7168 33.3445 38.791 33.4141 38.9373 33.541V53.7248C38.9373 61.7067 45.4073 68.1767 53.3892 68.1767Z" fill="#FFCBBE"/>
<path d="M62.3482 56.8722C64.1407 56.8722 65.5938 55.9887 65.5938 54.8988C65.5938 53.8089 64.1407 52.9254 62.3482 52.9254C60.5557 52.9254 59.1025 53.8089 59.1025 54.8988C59.1025 55.9887 60.5557 56.8722 62.3482 56.8722Z" fill="#EAAFA5"/>
<path d="M36.189 56.8722C37.9815 56.8722 39.4346 55.9887 39.4346 54.8988C39.4346 53.8089 37.9815 52.9254 36.189 52.9254C34.3965 52.9254 32.9434 53.8089 32.9434 54.8988C32.9434 55.9887 34.3965 56.8722 36.189 56.8722Z" fill="#EAAFA5"/>
<path d="M10.0781 84.5143C15.7323 85.9463 21.6277 86.1493 27.367 85.1098L41.2712 82.5916C45.3963 81.8446 49.1916 85.0142 49.1916 89.2064V93.9006H10.0781V84.5143Z" fill="#ECF4FF"/>
<path d="M88.3049 84.5143C82.6507 85.9463 76.7553 86.1493 71.016 85.1098L57.1118 82.5916C52.9867 81.8446 49.1914 85.0142 49.1914 89.2064V93.9006L88.3049 94.027V84.5143Z" fill="#ECF4FF"/>
<path d="M44.6182 82.8348V89.4155L40.5652 87.2019L36.2979 89.4155V83.4931L41.2724 82.5922C42.4402 82.3816 43.5819 82.483 44.6182 82.8348Z" fill="#D57080"/>
<path d="M24.5335 30.9581C20.6989 31.0764 16.8644 31.0764 13.0298 30.9581C6.69697 30.7625 1.57979 25.6652 1.43241 19.3309C1.39753 17.8314 1.39753 16.3319 1.43241 14.8323C1.57979 8.49838 6.69697 3.40088 13.0298 3.20531C16.8644 3.087 20.6989 3.087 24.5335 3.20531C30.8663 3.40088 35.9835 8.49819 36.1309 14.8325C36.1658 16.3319 36.1658 17.8314 36.1309 19.3311C35.9837 25.6652 30.8665 30.7625 24.5335 30.9581Z" fill="#E0F1F4"/>
<path d="M20.2706 42.7364C22.3822 42.7364 24.0939 41.0246 24.0939 38.913C24.0939 36.8015 22.3822 35.0897 20.2706 35.0897C18.159 35.0897 16.4473 36.8015 16.4473 38.913C16.4473 41.0246 18.159 42.7364 20.2706 42.7364Z" fill="#E0F1F4"/>
<path d="M84.7373 25.7529L84.6147 25.3552C84.1823 23.9523 84.9102 22.4541 86.2803 21.9267L90.4946 20.3046C92.004 19.7235 93.6899 20.5425 94.1663 22.0883L94.471 23.0768C94.9473 24.6226 94.015 26.2485 92.4402 26.6179L88.0439 27.6493C86.6146 27.9846 85.1697 27.1558 84.7373 25.7529Z" fill="#F6E781"/>
<path d="M79.5346 15.8967L79.2296 15.6135C78.1537 14.6147 78.0348 12.9534 78.9577 11.8117L81.7963 8.29975C82.8131 7.04178 84.6826 6.90809 85.868 8.00855L86.626 8.71226C87.8114 9.81272 87.8169 11.687 86.6379 12.7942L83.3462 15.8856C82.2761 16.8906 80.6105 16.8955 79.5346 15.8967Z" fill="#F6E781"/>
<path d="M69.4222 11.2507L69.0164 11.1579C67.5852 10.8309 66.6518 9.45142 66.88 8.00126L67.5824 3.54052C67.834 1.94279 69.3862 0.892206 70.9629 1.25259L71.9713 1.48303C73.548 1.84342 74.4899 3.46383 74.0226 5.01224L72.7178 9.33535C72.2934 10.7409 70.8534 11.5779 69.4222 11.2507Z" fill="#F6E781"/>
<path d="M57.9609 52.5901C59.7152 52.5901 61.3645 51.9069 62.6052 50.6663C63.1544 50.1171 63.1544 49.2267 62.6052 48.6775C62.0558 48.1283 61.1656 48.1283 60.6164 48.6775C59.9072 49.3868 58.9641 49.7774 57.9611 49.7774C56.9581 49.7774 56.0152 49.3868 55.306 48.6775C54.7566 48.1285 53.8664 48.1283 53.3172 48.6775C52.768 49.2267 52.768 50.1171 53.3172 50.6663C54.5575 51.907 56.2066 52.5901 57.9609 52.5901Z" fill="black"/>
<path d="M45.2273 48.6776C44.6779 48.1284 43.7876 48.1284 43.2384 48.6776C42.5293 49.387 41.5861 49.7775 40.5834 49.7775C39.5802 49.7775 38.6373 49.387 37.9281 48.6776C37.3787 48.1286 36.4884 48.1284 35.9392 48.6776C35.39 49.2268 35.39 50.1173 35.9392 50.6665C37.1798 51.907 38.8291 52.5903 40.5835 52.5903C42.3377 52.5903 43.9869 51.907 45.2277 50.6665C45.7765 50.1173 45.7765 49.2268 45.2273 48.6776Z" fill="black"/>
<path d="M47.2363 62.273H51.3045C52.0813 62.273 52.7108 61.6433 52.7108 60.8667C52.7108 60.0901 52.0813 59.4604 51.3045 59.4604H47.2363C46.4595 59.4604 45.8301 60.0901 45.8301 60.8667C45.8301 61.6433 46.4595 62.273 47.2363 62.273Z" fill="black"/>
<path d="M28.3159 8.80145H19.8004C19.1704 8.80145 18.6169 9.22071 18.4464 9.82729L15.671 19.7039L13.3028 15.3037C13.0574 14.8481 12.5819 14.564 12.0645 14.564H8.95121C8.17437 14.564 7.54492 15.1937 7.54492 15.9703C7.54492 16.747 8.17437 17.3766 8.95121 17.3766H11.2243L14.8449 24.1028C15.092 24.5618 15.5697 24.8427 16.0829 24.8427C16.1341 24.8427 16.1859 24.8398 16.2376 24.8342C16.8075 24.7714 17.282 24.3688 17.4371 23.8168L20.866 11.6142H28.3159C29.0928 11.6142 29.7222 10.9846 29.7222 10.2079C29.7222 9.43128 29.0928 8.80145 28.3159 8.80145Z" fill="black"/>
<path d="M24.4556 23.8504C23.8368 24.315 23.7095 25.1927 24.1717 25.8141C24.4477 26.1852 24.8717 26.3812 25.301 26.3812C25.5928 26.3812 25.8872 26.2906 26.1394 26.1031C26.2912 25.99 29.8454 23.2911 30.4679 18.2322C30.5043 18.0027 30.5236 17.7678 30.5236 17.5283C30.5236 15.0568 28.513 13.0462 26.0417 13.0462C23.5704 13.0462 21.5596 15.0568 21.5596 17.5283C21.5596 19.9996 23.5704 22.0104 26.0417 22.0104C26.0627 22.0104 26.0835 22.0091 26.1045 22.0089C25.2956 23.1934 24.4856 23.8273 24.4556 23.8504ZM24.3721 17.5285C24.3721 16.6079 25.121 15.859 26.0417 15.859C26.9621 15.859 27.711 16.6079 27.711 17.5285C27.711 18.449 26.9621 19.198 26.0417 19.198C25.121 19.1979 24.3721 18.449 24.3721 17.5285Z" fill="black"/>
<path d="M95.8143 22.6624L95.5098 21.6741C95.1683 20.5663 94.3746 19.6406 93.3321 19.1339C92.2892 18.6273 91.0708 18.5757 89.9889 18.992L85.7745 20.6141C83.7228 21.4039 82.6227 23.6682 83.2704 25.7694L83.393 26.167C83.9441 27.9553 85.608 29.1287 87.4112 29.1285C87.7264 29.1285 88.0461 29.0927 88.3645 29.0179L92.7608 27.9864C93.8893 27.7217 94.8672 26.993 95.4441 25.9876C96.0205 24.9824 96.1557 23.7704 95.8143 22.6624ZM93.0041 24.5886C92.811 24.9256 92.4962 25.1598 92.1182 25.2486L87.7217 26.2801C87.0154 26.4464 86.2944 26.0324 86.0805 25.3388C86.0805 25.3387 86.0805 25.3387 86.0805 25.3385L85.9579 24.941C85.7441 24.2474 86.1075 23.4998 86.7848 23.2392L90.9991 21.6171C91.1617 21.5544 91.3305 21.5233 91.4983 21.5233C91.7047 21.5233 91.9102 21.5704 92.103 21.6639C92.4521 21.8336 92.7075 22.1314 92.8219 22.5026L93.1264 23.491C93.2408 23.8619 93.1975 24.2517 93.0041 24.5886Z" fill="black"/>
<path d="M78.5813 16.9276C79.3836 17.6725 80.4107 18.0445 81.4377 18.0445C82.4729 18.0445 83.5079 17.6663 84.3123 16.9111L87.604 13.8197C88.4489 13.0262 88.9315 11.9062 88.9281 10.747C88.9247 9.58788 88.4355 8.47073 87.5862 7.68209L86.8281 6.97819C85.9785 6.18955 84.8274 5.78491 83.672 5.86742C82.5158 5.95011 81.4347 6.51449 80.7061 7.41602L77.8674 10.9278C76.4853 12.6376 76.665 15.1487 78.2762 16.6444L78.5813 16.9276ZM80.0548 12.6958L82.8935 9.184C83.1376 8.88193 83.4852 8.70042 83.8726 8.67267C83.9069 8.67023 83.9409 8.66892 83.9748 8.66892C84.3247 8.66892 84.6553 8.79849 84.9146 9.03924L85.6727 9.74295C85.9573 10.0071 86.1146 10.3666 86.1157 10.7549C86.1169 11.1432 85.9616 11.5034 85.6785 11.7693L82.3868 14.8607C81.8579 15.3578 81.0267 15.3598 80.4947 14.8661L80.1897 14.583C79.6577 14.0893 79.5987 13.2603 80.0548 12.6958Z" fill="black"/>
<path d="M68.7038 12.5289L69.1096 12.6215H69.1094C69.4202 12.6926 69.7317 12.7267 70.0392 12.7267C71.8514 12.7267 73.5212 11.5411 74.0644 9.74161L75.3694 5.4185C75.7045 4.30866 75.5623 3.09738 74.9798 2.09517C74.3974 1.09315 73.415 0.37013 72.2851 0.111936L71.2769 -0.118507C70.1474 -0.376513 68.9485 -0.152258 67.9883 0.497446C67.0282 1.14715 66.3742 2.17655 66.1939 3.32164L65.4915 7.78237C65.1495 9.95424 66.5604 12.0391 68.7038 12.5289ZM68.2697 8.2202L68.9721 3.75946C69.0323 3.37583 69.2427 3.0447 69.5644 2.82719C69.7973 2.6695 70.0638 2.58812 70.337 2.58812C70.4408 2.58812 70.5457 2.59993 70.6501 2.62375L71.6583 2.85419C72.0371 2.94063 72.3528 3.17314 72.548 3.50896C72.7432 3.84478 72.7888 4.23441 72.6768 4.60605L71.3718 8.92897C71.162 9.62386 70.4438 10.0416 69.7358 9.8798C69.7358 9.8798 69.7358 9.8798 69.7356 9.8798L69.3301 9.78717C68.6226 9.62536 68.1568 8.93703 68.2697 8.2202Z" fill="black"/>
<path d="M91.3089 92.621C91.3082 92.621 91.3074 92.621 91.3067 92.621L89.7133 92.6234V84.5148C89.7133 84.0811 89.5132 83.6714 89.1706 83.4051C88.8284 83.1387 88.3824 83.0451 87.9618 83.1516C85.7022 83.7237 83.3767 84.0965 81.0498 84.2596C80.275 84.314 79.6909 84.986 79.7453 85.7607C79.7997 86.5355 80.4689 87.1198 81.2465 87.0652C83.1422 86.9323 85.0373 86.6696 86.9007 86.2818V92.6215L50.6 92.495V89.2061C50.6 87.626 51.2954 86.1391 52.508 85.1262C53.7208 84.1132 55.309 83.6935 56.8632 83.9748L70.7659 86.4928C72.3104 86.7735 73.8819 86.9687 75.4363 87.0729C76.2088 87.1243 76.8816 86.5389 76.9335 85.7639C76.9855 84.989 76.3993 84.3186 75.6245 84.2667C74.1753 84.1694 72.7096 83.9873 71.2681 83.7254L69.2891 83.3671C69.0994 81.8796 68.8877 80.3527 68.6554 78.8075C68.3949 77.1121 67.4066 75.6376 65.945 74.7627C63.9927 73.5911 61.7597 72.5314 59.3077 71.6122C58.0428 71.1386 56.7406 70.7103 55.4247 70.3308V69.5632C62.2896 69.2302 68.0188 64.5107 69.8715 58.1548C73.7024 57.7669 76.7021 54.5229 76.7021 50.5915C76.7021 50.0248 76.6393 49.4595 76.5154 48.9112C76.2891 47.9084 75.7804 47.0725 75.0845 46.4708C79.3463 42.0754 81.2474 36.3904 80.5934 29.9007C80.0517 24.5266 77.9614 20.5264 77.8725 20.3586C77.6798 19.9941 77.3366 19.7327 76.9341 19.6434C76.5317 19.5542 76.1102 19.6459 75.7813 19.8947C73.6068 21.5391 71.5572 20.2768 67.4938 17.4971C63.3666 14.6744 58.2307 11.1611 50.8231 11.1611C45.3872 11.1611 40.7524 14.4209 37.5609 17.5409C37.5652 16.6256 37.5583 15.709 37.5365 14.8002C37.3732 7.72902 31.6808 2.01857 24.5768 1.79994C20.7318 1.68143 16.8319 1.68143 12.9869 1.79994C5.88502 2.01875 0.19238 7.72883 0.0270007 14.7993C-0.00900022 16.3139 -0.00900022 17.8498 0.0270007 19.3648C0.0922523 22.0692 0.966211 24.6541 2.55456 26.8402C3.01132 27.4686 3.89053 27.6079 4.51886 27.1513C5.14738 26.6947 5.2865 25.8153 4.82993 25.187C3.57853 23.4648 2.89001 21.4281 2.83882 19.2975C2.80376 17.8273 2.80376 16.3364 2.83882 14.8656C2.96914 9.28831 7.46475 4.78407 13.0732 4.61119C16.861 4.49457 20.7024 4.49457 24.4902 4.61119C30.1003 4.78389 34.5959 9.28793 34.7245 14.8662C34.7596 16.3364 34.7596 17.8273 34.7245 19.2984C34.5957 24.8756 30.1003 29.3796 24.4902 29.5525C20.702 29.6691 16.861 29.6691 13.0736 29.5525C11.5023 29.5037 9.99999 29.1203 8.60871 28.4127C7.91644 28.0607 7.06986 28.3363 6.71773 29.0286C6.36559 29.7209 6.64141 30.5675 7.33349 30.9196C9.09641 31.8162 10.9983 32.3021 12.9866 32.3636C14.552 32.4118 16.1267 32.4393 17.7031 32.4483C17.7355 33.0487 17.7902 33.6568 17.869 34.2701C16.1908 35.1416 15.0412 36.8952 15.0412 38.9133C15.0412 41.7969 17.3873 44.143 20.2709 44.143C20.4706 44.143 20.6675 44.1306 20.8614 44.1087C21.546 45.5603 22.1938 46.7052 22.635 47.4365C22.3603 47.8721 22.1516 48.366 22.0286 48.911C21.9047 49.4595 21.8418 50.0248 21.8418 50.5915C21.8418 54.5227 24.8412 57.7665 28.6717 58.1548C30.5244 64.5109 36.254 69.2305 43.1193 69.5632V70.3302C41.8068 70.709 40.5044 71.1371 39.2348 71.612C36.783 72.5312 34.55 73.5911 32.599 74.7617C31.1363 75.6374 30.1479 77.1119 29.8869 78.8111C29.6619 80.3021 29.4517 81.8207 29.2577 83.3391L27.1186 83.7265C21.5381 84.7358 15.9214 84.5422 10.4239 83.1509C10.0041 83.0446 9.55767 83.1381 9.2151 83.4046C8.8729 83.671 8.67265 84.0805 8.67265 84.5142V92.6185L7.07455 92.621C6.2979 92.6221 5.66939 93.2527 5.67051 94.0293C5.67164 94.8052 6.30109 95.4335 7.0768 95.4335H7.07905H91.3114C92.088 95.4324 92.7165 94.8018 92.7154 94.0252C92.7143 93.2491 92.0846 92.621 91.3089 92.621ZM52.6121 69.5834V71.3135C52.6121 73.1552 51.1138 74.6535 49.2721 74.6535C47.4304 74.6535 45.9321 73.1552 45.9321 71.3135V69.5834H52.6121ZM70.4353 55.1904C70.4798 54.7074 70.5057 54.2191 70.5057 53.7248V52.7164C70.804 52.4159 71.314 52.0189 71.7921 52.2115C72.5123 52.5021 73.3317 52.1536 73.6224 51.4335C73.913 50.7133 73.5646 49.8939 72.8444 49.6033C72.0987 49.3024 71.314 49.2641 70.5486 49.4795C70.7624 48.4464 71.7569 48.2761 71.9759 48.2518C72.2204 48.2244 73.4619 48.1573 73.7718 49.5309C73.8498 49.8763 73.8894 50.2331 73.8894 50.5915C73.8894 52.7689 72.4283 54.6106 70.4353 55.1904ZM17.854 38.9131C17.854 37.5803 18.9383 36.496 20.2711 36.496C21.6039 36.496 22.6882 37.5803 22.6882 38.9131C22.6882 40.2459 21.6039 41.3302 20.2711 41.3302C18.9383 41.3302 17.854 40.2461 17.854 38.9131ZM20.6334 33.6975C20.5831 33.2758 20.5445 32.8573 20.5192 32.4436C21.8752 32.4313 23.2294 32.4052 24.5766 32.3636C30.7341 32.174 35.8286 27.8575 37.1837 22.1067C39.3632 19.4689 44.6477 13.9737 50.8231 13.9737C57.3608 13.9737 62.0987 17.2145 65.9056 19.8186C69.3512 22.1755 72.6305 24.4186 75.9883 23.0093C76.5947 24.4944 77.4836 27.0951 77.7949 30.1827C78.417 36.3553 76.5073 41.4812 72.1186 45.4274C71.9688 45.4302 71.8174 45.4394 71.6644 45.4564C71.2544 45.5022 70.8675 45.5986 70.5059 45.7349V42.6158C70.5059 41.8391 69.8764 41.2095 69.0996 41.2095C58.7889 41.2095 51.3403 38.7929 46.9075 36.7656C42.1057 34.5697 39.7063 32.3439 39.685 32.324C39.2775 31.9374 38.6786 31.8305 38.1621 32.0527C37.6457 32.2747 37.3112 32.7826 37.3112 33.3446C37.3112 37.6812 33.782 41.2095 29.4438 41.2095C28.667 41.2095 28.0376 41.8391 28.0376 42.6158V45.7347C27.6761 45.5986 27.2896 45.5022 26.8797 45.4564C26.1627 45.3766 25.4783 45.4563 24.8584 45.6694C24.4845 45.0312 23.9908 44.1351 23.4707 43.0455C24.7045 42.0879 25.5008 40.5922 25.5008 38.9131C25.5008 36.1515 23.3484 33.8844 20.6334 33.6975ZM24.6544 50.5915C24.6544 50.2329 24.694 49.8761 24.772 49.5305C25.0821 48.1574 26.323 48.2244 26.5679 48.2518C26.7867 48.2761 27.7812 48.4464 27.9952 49.4795C27.23 49.2641 26.4453 49.3024 25.6994 49.6033C24.979 49.8939 24.6308 50.7133 24.9214 51.4335C25.2121 52.1537 26.0311 52.5021 26.7517 52.2115C27.2292 52.0189 27.7391 52.4153 28.0374 52.7157V53.7247C28.0374 54.2189 28.0633 54.7072 28.1077 55.19C26.1151 54.6101 24.6544 52.7688 24.6544 50.5915ZM30.8499 53.7248V43.93C35.1984 43.3556 38.7304 40.1551 39.7945 35.9798C43.5954 38.6525 52.7212 43.7076 67.6931 44.0082V53.725C67.6931 60.9184 61.8409 66.7705 54.6475 66.7705H43.8956C36.7021 66.7703 30.8499 60.9183 30.8499 53.7248ZM32.6674 79.2345C32.8002 78.3697 33.3019 77.6189 34.0448 77.1742C35.8512 76.0904 37.9296 75.1052 40.221 74.2461C41.2641 73.8559 42.332 73.5 43.4086 73.1777C44.2003 75.6618 46.5289 77.4663 49.2719 77.4663C52.0149 77.4663 54.3435 75.6618 55.1352 73.1779C56.2141 73.5009 57.2813 73.8566 58.3209 74.2459C60.6133 75.1052 62.6914 76.0906 64.4991 77.1751C65.2409 77.6191 65.7427 78.3699 65.8747 79.2302C66.0579 80.4478 66.2274 81.6544 66.3845 82.8407L57.3644 81.207C54.9861 80.7769 52.5592 81.4185 50.7052 82.9675C50.1189 83.4573 49.6122 84.0198 49.1928 84.6361C48.2198 83.2049 46.7931 82.0855 45.0716 81.5031C43.7816 81.0653 42.3824 80.9634 41.0232 81.2083L32.1627 82.8132C32.3215 81.6115 32.4899 80.4131 32.6674 79.2345ZM37.7053 84.6676L41.5233 83.9761C42.0935 83.8733 42.6586 83.8615 43.2125 83.9393V87.0446L41.2401 85.9674C40.8295 85.7429 40.3341 85.7377 39.9186 85.9533L37.7051 87.1014V84.6676H37.7053ZM11.4854 86.2822C16.8135 87.3964 22.2324 87.4685 27.6198 86.4943L34.8927 85.177V89.415C34.8927 89.9061 35.1489 90.3617 35.5685 90.6167C35.7924 90.7529 36.0453 90.8213 36.299 90.8213C36.521 90.8213 36.743 90.7688 36.9465 90.6634L40.5492 88.7948L43.9447 90.6492C44.3801 90.8871 44.9092 90.8778 45.3364 90.6244C45.7631 90.3711 46.0251 89.9115 46.0251 89.415V85.2552C47.1223 86.243 47.7872 87.6654 47.7872 89.2069V92.495H11.4854V86.2822Z" fill="black"/>
</g>
<defs>
<clipPath id="clip0_432:7479">
<rect width="96" height="96" fill="white"/>
</clipPath>
</defs>
</svg>
