<svg width="182" height="166" viewBox="0 0 182 166" fill="none" xmlns="http://www.w3.org/2000/svg">
<g opacity="0.4">
<path d="M8.17948 21.803C7.4055 20.7472 7.4055 19.3114 8.17948 18.2556L20.6088 1.30051C21.8074 -0.334578 24.2492 -0.334579 25.4478 1.30051L37.8772 18.2556C38.6511 19.3114 38.6511 20.7472 37.8772 21.803L25.4478 38.7581C24.2492 40.3932 21.8074 40.3932 20.6088 38.7581L8.17948 21.803Z" fill="white"/>
<path d="M76.1805 21.803C75.4065 20.7472 75.4065 19.3114 76.1805 18.2556L88.6098 1.30051C89.8084 -0.334578 92.2502 -0.334579 93.4488 1.30051L105.878 18.2556C106.652 19.3114 106.652 20.7472 105.878 21.803L93.4488 38.7581C92.2502 40.3932 89.8084 40.3932 88.6098 38.7581L76.1805 21.803Z" fill="white"/>
<path d="M144.18 21.803C143.406 20.7472 143.406 19.3114 144.18 18.2556L156.61 1.30051C157.808 -0.334578 160.25 -0.334579 161.449 1.30051L173.878 18.2556C174.652 19.3114 174.652 20.7472 173.878 21.803L161.449 38.7581C160.25 40.3932 157.808 40.3932 156.61 38.7581L144.18 21.803Z" fill="white"/>
<path d="M76.1805 84.803C75.4065 83.7472 75.4065 82.3114 76.1805 81.2556L88.6098 64.3005C89.8084 62.6654 92.2502 62.6654 93.4488 64.3005L105.878 81.2556C106.652 82.3114 106.652 83.7472 105.878 84.803L93.4488 101.758C92.2502 103.393 89.8084 103.393 88.6098 101.758L76.1805 84.803Z" fill="white"/>
<path d="M144.18 84.803C143.406 83.7472 143.406 82.3114 144.18 81.2556L156.61 64.3005C157.808 62.6654 160.25 62.6654 161.449 64.3005L173.878 81.2556C174.652 82.3114 174.652 83.7472 173.878 84.803L161.449 101.758C160.25 103.393 157.808 103.393 156.61 101.758L144.18 84.803Z" fill="white"/>
<path d="M144.18 147.803C143.406 146.747 143.406 145.311 144.18 144.256L156.61 127.301C157.808 125.665 160.25 125.665 161.449 127.301L173.878 144.256C174.652 145.311 174.652 146.747 173.878 147.803L161.449 164.758C160.25 166.393 157.808 166.393 156.61 164.758L144.18 147.803Z" fill="white"/>
</g>
</svg>
