<svg width="182" height="166" viewBox="0 0 182 166" fill="none" xmlns="http://www.w3.org/2000/svg">
<g opacity="0.4">
<path d="M8.82792 21.803C8.05394 20.7472 8.05394 19.3114 8.82792 18.2556L21.2572 1.30051C22.4559 -0.334578 24.8976 -0.334579 26.0963 1.30051L38.5256 18.2556C39.2996 19.3114 39.2996 20.7472 38.5256 21.803L26.0963 38.7581C24.8976 40.3932 22.4559 40.3932 21.2572 38.7581L8.82792 21.803Z" fill="#CEE5D8"/>
<path d="M76.8289 21.803C76.0549 20.7472 76.0549 19.3114 76.8289 18.2556L89.2582 1.30051C90.4569 -0.334578 92.8986 -0.334579 94.0972 1.30051L106.527 18.2556C107.301 19.3114 107.301 20.7472 106.527 21.803L94.0972 38.7581C92.8986 40.3932 90.4569 40.3932 89.2582 38.7581L76.8289 21.803Z" fill="#CEE5D8"/>
<path d="M144.829 21.803C144.055 20.7472 144.055 19.3114 144.829 18.2556L157.258 1.30051C158.457 -0.334578 160.899 -0.334579 162.097 1.30051L174.527 18.2556C175.301 19.3114 175.301 20.7472 174.527 21.803L162.097 38.7581C160.899 40.3932 158.457 40.3932 157.258 38.7581L144.829 21.803Z" fill="#CEE5D8"/>
<path d="M76.8289 84.803C76.0549 83.7472 76.0549 82.3114 76.8289 81.2556L89.2582 64.3005C90.4569 62.6654 92.8986 62.6654 94.0972 64.3005L106.527 81.2556C107.301 82.3114 107.301 83.7472 106.527 84.803L94.0972 101.758C92.8986 103.393 90.4569 103.393 89.2582 101.758L76.8289 84.803Z" fill="#CEE5D8"/>
<path d="M144.829 84.803C144.055 83.7472 144.055 82.3114 144.829 81.2556L157.258 64.3005C158.457 62.6654 160.899 62.6654 162.097 64.3005L174.527 81.2556C175.301 82.3114 175.301 83.7472 174.527 84.803L162.097 101.758C160.899 103.393 158.457 103.393 157.258 101.758L144.829 84.803Z" fill="#CEE5D8"/>
<path d="M144.829 147.803C144.055 146.747 144.055 145.311 144.829 144.256L157.258 127.301C158.457 125.665 160.899 125.665 162.097 127.301L174.527 144.256C175.301 145.311 175.301 146.747 174.527 147.803L162.097 164.758C160.899 166.393 158.457 166.393 157.258 164.758L144.829 147.803Z" fill="#CEE5D8"/>
</g>
</svg>
